<?xml version="1.0" encoding="utf-8"?>
<!-- Generator: Adobe Illustrator 29.2.1, SVG Export Plug-In . SVG Version: 9.03 Build 55982)  -->
<svg version="1.0" id="Layer_1" xmlns="http://www.w3.org/2000/svg" xmlns:xlink="http://www.w3.org/1999/xlink" x="0px" y="0px"
	 viewBox="0 0 567.3 284.9" style="enable-background:new 0 0 567.3 284.9;" xml:space="preserve">
<style type="text/css">
	.st0{fill:#FFFFFF;}
</style>
<g>
	<g>
		<path class="st0" d="M387.3,94.2c-0.1-10.8-4-21.3-10.9-29.7c-0.8-1.2-1.6-2.2-2.4-3.1c-0.9-1.2-1.8-2.4-2.8-3.6
			c-0.5-0.6-0.9-1.2-1.4-1.8c-0.7-1-1.4-2-2.2-3c-10.5-15.2-25.5-24.1-40.4-24.1c-0.2,0-0.3,0-0.5,0c-6.3,0.1-12.5,1.3-18.3,3.7
			c-14.8,6-25.3,23.3-32,52.9c-5.7,25.2-7.6,55.1-9.2,79.2c-1,15.4-1.9,28.7-3.5,37.7c-3.7-15-6.8-36.3-10-58.9
			c-3.1-22-6.4-44.8-10.6-64.9c4.5-6.2,9.1-8.9,14.4-8.7c1.1,0,2.2,0.3,3.3,0.8c0.2,0.1,0.5,0,0.7-0.2c0.1-0.2,0-0.5-0.2-0.7
			c-1.2-0.6-2.4-0.9-3.7-0.9c-5.5-0.2-10.2,2.5-14.7,8.4c-0.2-1-0.4-1.9-0.6-2.8c3.4-4.8,7.2-7,11.9-6.9c1.1,0,2.3,0.3,3.3,0.8
			c0.2,0.1,0.5,0,0.7-0.2c0.1-0.1,0.1-0.3,0-0.4c0-0.1-0.1-0.2-0.3-0.3c-1.2-0.6-2.4-0.9-3.7-0.9c-4.8-0.2-8.8,2-12.2,6.6
			c-0.2-1-0.5-2-0.7-3c2.6-3.4,5.7-5,9.5-4.8c1.2,0,2.3,0.3,3.4,0.8c0.3,0.1,0.5,0,0.7-0.2c0.1-0.2,0-0.5-0.2-0.7
			c-1.2-0.6-2.4-0.9-3.8-0.9c-0.2,0-0.3,0-0.5,0c-3.6,0-6.7,1.5-9.3,4.6c-0.2-1.1-0.5-2.1-0.8-3.1c2-1.9,4.3-2.8,7.1-2.7
			c1.2,0,2.3,0.3,3.4,0.8c0.1,0.1,0.3,0.1,0.4,0c0.1,0,0.2-0.1,0.3-0.2c0.1-0.1,0.1-0.3,0-0.4c0-0.1-0.1-0.2-0.3-0.3
			c-1.2-0.6-2.5-0.9-3.8-0.9c-2.9-0.1-5.4,0.7-7.4,2.6c-0.2-0.9-0.5-1.8-0.7-2.7c1.4-0.8,2.9-1.2,4.7-1.1c1.2,0,2.3,0.3,3.4,0.9
			c0.2,0.1,0.5,0,0.7-0.2c0.1-0.1,0.1-0.3,0-0.4c0-0.1-0.1-0.2-0.3-0.3c-1.2-0.6-2.5-0.9-3.8-0.9c-1.9-0.1-3.5,0.3-5,1.1
			c-0.2-0.7-0.4-1.5-0.6-2.2c0.7-0.2,1.5-0.2,2.2-0.2c1.2,0,2.4,0.3,3.5,0.9c0.3,0.1,0.5,0,0.7-0.2c0.1-0.2,0-0.5-0.2-0.7
			c-1.2-0.6-2.5-0.9-3.9-1c-0.8,0-1.7,0-2.5,0.2c-5.5-19.4-11.7-31.1-19.1-35.6c-1.4-1.7-3-3.1-4.6-4.1c-1.6-2-3.3-3.5-5-4.5
			c-1.5-1.9-3.2-3.3-4.8-4.3c-1.5-1.8-3-3.2-4.6-4.1c-2.7-3.5-5.6-5.3-8.6-5.2c-16.4,0.2-24,42-31.3,82.4c-0.7,3.7-1.3,7.4-2,11.1
			c-1.2-0.2-2.4-0.3-3.7-0.4c-0.1,0-0.3,0-0.4,0.1c-0.1,0.1-0.2,0.2-0.2,0.3c0,0.3,0.2,0.5,0.5,0.5c1.2,0,2.4,0.2,3.5,0.4l-0.4,2.1
			c-2.4-0.9-5-1.4-7.8-1.5c-0.1,0-0.3,0-0.4,0.1c-0.1,0.1-0.2,0.2-0.2,0.3c0,0.1,0,0.3,0.1,0.4c0.1,0.1,0.2,0.2,0.3,0.2
			c2.7,0.1,5.2,0.6,7.6,1.5c-0.2,0.9-0.4,1.9-0.5,2.8c-3.5-2.1-7.3-3.2-11.7-3.4c-0.1,0-0.3,0-0.4,0.1c-0.1,0.1-0.2,0.2-0.2,0.3
			c0,0.1,0,0.3,0.1,0.4c0.1,0.1,0.2,0.2,0.3,0.2c4.3,0.2,8.1,1.3,11.5,3.4c-2.9,15.2-6.5,32.3-11.3,44.3
			c-9.9-4.5-16.2-17.7-22.3-30.5c-3.9-8.3-8-16.8-13.1-23.1c-0.7-1.1-1.5-2.1-2.4-3.1c-0.2-0.2-0.3-0.4-0.5-0.6l-0.1-0.1
			c-0.9-1.3-1.8-2.5-2.8-3.7c-6-9.5-14.9-15.2-27.2-17.3c-3.9-0.7-8.2-1-12.7-0.9c-16.3,0.2-24.4,10.2-32.2,19.9
			c-7.7,9.5-15.6,19.3-31.4,19.5c-0.2,0-0.3,0.1-0.4,0.2C0.1,106,0,106.1,0,106.3c0,0.3,0.3,0.6,0.6,0.6c0,0,0,0,0,0
			c16.3-0.2,24.4-10.2,32.2-19.9c7.7-9.5,15.6-19.3,31.4-19.5c4.5-0.1,8.7,0.2,12.5,0.9c6.3,1.1,11.7,3.2,16.3,6.2
			c-3.8-2.1-8.2-3.6-13-4.3l0,0c0,0,0,0,0,0l-0.1,0l0,0c-3.8-0.5-7.9-0.6-12.2-0.4c-14.8,0.9-22.5,10.3-29.9,19.5
			c-7.6,9.3-15.4,18.9-30.9,19.1c-0.2,0-0.3,0.1-0.4,0.2c-0.1,0.1-0.2,0.2-0.2,0.4c0,0.2,0.1,0.3,0.2,0.4c0.1,0.1,0.2,0.2,0.4,0.2
			c0,0,0,0,0,0c16-0.2,24-10,31.8-19.5c7.3-8.9,14.8-18.2,29.1-19.1c4.2-0.3,8.3-0.1,12,0.4c5.7,0.9,10.6,2.7,14.8,5.4
			c-3.5-1.8-7.3-3-11.7-3.5l0,0c0,0,0,0,0,0l-0.1,0l0,0c-3.8-0.4-7.6-0.3-11.7,0.2c-13.4,1.5-20.6,10.4-27.6,19
			c-7.5,9.1-15.2,18.6-30.4,18.8c-0.2,0-0.3,0.1-0.4,0.2c-0.1,0.1-0.2,0.2-0.2,0.4c0,0.2,0.1,0.3,0.2,0.4c0.1,0.1,0.3,0.2,0.4,0.2
			c15.8-0.2,23.7-9.9,31.3-19.2c6.9-8.4,13.9-17.1,26.8-18.6c4-0.5,7.8-0.5,11.5-0.1c5.4,0.7,10.1,2.4,14.2,5.1
			c-3.3-1.8-6.9-2.8-11-3.2l-0.1,0l-0.1,0c-3.8-0.2-7.4,0-11.2,0.7C62.7,79.2,56,87.4,49.4,95.4c-7.4,9-15,18.3-30.1,18.5
			c-0.2,0-0.3,0.1-0.4,0.2c-0.1,0.1-0.2,0.2-0.2,0.4c0,0.3,0.3,0.6,0.6,0.6c0,0,0,0,0,0c15.6-0.2,23.4-9.7,30.9-19
			c6.4-7.8,13-15.9,24.5-18c3.7-0.7,7.3-0.9,11-0.7c4.8,0.4,8.9,1.8,12.7,4.3c-2.9-1.4-5.9-2.2-9.3-2.4l-0.2,0c0,0,0,0,0,0l-0.1,0
			l0,0c-3.7-0.1-7.2,0.3-10.6,1.2C67.7,83.3,61.4,91,55.4,98.4c-7.3,8.9-14.8,18.2-29.7,18.4c-0.2,0-0.3,0.1-0.4,0.2
			c-0.1,0.1-0.2,0.2-0.2,0.4c0,0.3,0.3,0.6,0.6,0.6c0,0,0,0,0,0c15.4-0.2,23.1-9.7,30.6-18.8c5.9-7.3,12.1-14.8,22.1-17.4
			c3.4-0.9,6.8-1.3,10.4-1.2c4.5,0.2,8.6,1.6,12.2,4.1c-2.9-1.5-5.9-2.2-9.2-2.2c-15.4,0.2-23,9.6-30.4,18.8
			c-7.2,8.9-14.7,18.1-29.5,18.3c-0.2,0-0.3,0.1-0.4,0.2c-0.1,0.1-0.2,0.2-0.2,0.4c0,0.3,0.3,0.6,0.6,0.6c0,0,0,0,0,0
			c15.4-0.2,23-9.6,30.4-18.8C69.5,93,77,83.7,91.8,83.5c0.1,0,0.2,0,0.3,0c4.8,0,9.1,1.8,13.2,5.4c6,12,7.3,27.1,8.4,40.5
			c1.5,18.2,2.8,33.9,15.8,33.9c0.1,0,0.2,0,0.2,0c1.8,0,3.6-0.4,5.3-1.2c0.1,0,0.2-0.1,0.2-0.2c1.1-0.6,2.1-1.3,3.1-2.2
			c0.4-0.1,0.9-0.3,1.3-0.5c0.1,0,0.2-0.1,0.2-0.2c1.1-0.6,2.1-1.3,3.1-2.2c0.4-0.1,0.9-0.3,1.3-0.5c0.1,0,0.2-0.1,0.2-0.2
			c1.1-0.6,2.2-1.3,3.2-2.3c0.4-0.1,0.8-0.3,1.2-0.5c0.1,0,0.2-0.1,0.2-0.2c1.1-0.6,2.2-1.3,3.2-2.3c0.4-0.1,0.8-0.3,1.2-0.5
			c0.1,0,0.2-0.1,0.2-0.2c1.1-0.6,2.2-1.3,3.2-2.3c0.4-0.1,0.8-0.3,1.2-0.5c0.1,0,0.2-0.1,0.2-0.2c5.9-3,10.9-11.5,15.7-26.9
			c5.1,5.1,10.4,7.4,17.1,7.7c3.3,0.1,6.5,0,9.4-0.5c9.1-1.4,15.7-5.4,20.3-12.3l0.1-0.1c0.7-0.8,1.4-1.7,2.1-2.7l0.2-0.2
			c0.1-0.1,0.2-0.2,0.3-0.3c0.2-0.3,0.5-0.6,0.7-0.9c4,25.2,8,49.4,12.9,68.2c5.6,21.5,11.8,33,18.9,35.1c1.2,1,2.5,1.6,3.8,2
			c1.2,1,2.5,1.7,3.8,2c1.1,1,2.4,1.6,3.6,1.9c1.2,1.1,2.4,1.7,3.7,1.9c1.3,1.3,2.6,1.9,4,1.9c0,0,0,0,0.1,0
			c6.3-0.1,7.5-19,9.3-47.6c1.1-17.5,2.5-39.1,5.7-59.1c3.4,3.8,7.3,7.1,11.7,9.7c0.9,0.6,1.9,1.2,2.8,1.8c1,0.7,1.9,1.3,2.8,1.8
			c0.9,0.6,1.9,1.2,2.7,1.8c1,0.7,1.9,1.3,2.8,1.8c8.2,5.7,17.9,8.7,27.8,8.5C366.6,142.2,387.7,120.5,387.3,94.2z M140.4,157.2
			C140.4,157.2,140.4,157.2,140.4,157.2C140.4,157.2,140.4,157.2,140.4,157.2C140.4,157.2,140.4,157.2,140.4,157.2z M129.5,162.2
			c-12,0-13.2-14.5-14.7-32.8c-0.7-8.4-1.4-17.5-3.4-26.1c2.1,7.6,3.3,15.8,4.4,23.3c2.6,18.1,4.9,33.8,18.3,33.8c0.1,0,0.2,0,0.2,0
			c0.5,0,1,0,1.4-0.1c-0.5,0.4-1,0.6-1.5,0.9l0,0c-0.1,0-0.1,0.1-0.2,0.2c-1.4,0.6-2.9,0.9-4.4,0.9
			C129.6,162.2,129.5,162.2,129.5,162.2z M202.3,8.4c-0.1,0-0.2,0-0.3-0.1c-0.1-0.1-0.2-0.3-0.2-0.4C201.9,8.1,202.1,8.2,202.3,8.4z
			 M206.9,12.5c-0.1,0-0.2-0.1-0.2-0.1c-0.1-0.1-0.2-0.2-0.2-0.4C206.6,12.2,206.8,12.4,206.9,12.5z M172.5,110.1L172.5,110.1
			L172.5,110.1L172.5,110.1C172.5,110.1,172.5,110.1,172.5,110.1z M202.6,124.2c-2.8,0.3-5.7,0.3-8.8,0.1
			c-8.6-0.7-13.7-5.5-17.9-10.5c0.4-1.5,0.8-3,1.2-4.5c4.5,5.8,9.7,12.1,19.2,13.4c3,0.4,5.8,0.5,8.5,0.3l0,0l0.4,0v0
			c2.5-0.3,4.8-0.9,7-1.8C209.4,122.8,206.2,123.7,202.6,124.2z M149.4,146.9c5.1-10.8,8.8-27.1,11.8-41.8c0.8,0.8,1.6,1.7,2.5,2.7
			c-4.3,19.6-8.2,31.8-12.6,39.4C150.6,147.1,150,147,149.4,146.9z M168.4,106c-0.3,1.5-0.7,3.1-1.1,4.6c-0.9-1.1-1.6-2.1-2.4-2.9
			c0.3-1.4,0.6-2.9,0.9-4.4C166.7,104.1,167.5,105,168.4,106z M169.6,100.6c-0.3,1.4-0.6,2.8-0.9,4.2c-0.9-1-1.7-1.9-2.5-2.7
			c0.3-1.3,0.5-2.5,0.8-3.8C167.8,99,168.7,99.7,169.6,100.6z M170.6,95.8c-0.3,1.2-0.5,2.4-0.8,3.6c-0.9-0.8-1.8-1.5-2.7-2.2
			c0.2-1,0.4-2,0.6-3.1C168.7,94.7,169.7,95.2,170.6,95.8z M167.9,93.2l0.5-2.3c1,0.3,2,0.6,3,1c-0.2,1-0.4,1.9-0.6,2.9
			C169.9,94.2,169,93.7,167.9,93.2z M174.3,98.8c-0.3,1.4-0.6,2.8-1,4.3c-0.9-1-1.7-1.9-2.5-2.7c0.3-1.3,0.5-2.5,0.8-3.8
			C172.5,97.2,173.4,97.9,174.3,98.8z M172.5,92.3c1,0.5,1.9,1,2.8,1.6c-0.3,1.2-0.5,2.4-0.8,3.7c-0.9-0.8-1.8-1.5-2.7-2.2
			c0.2-1,0.4-2,0.6-3L172.5,92.3z M178.9,97c-0.3,1.4-0.7,2.8-1,4.3c-0.9-1-1.7-1.9-2.5-2.7c0.3-1.3,0.6-2.6,0.8-3.8
			C177.2,95.4,178.1,96.1,178.9,97z M172.7,91.3l0.5-2.3c1,0.3,2,0.6,3,1c-0.2,1-0.4,1.9-0.6,2.9C174.6,92.3,173.7,91.8,172.7,91.3z
			 M180,92.2c-0.3,1.2-0.6,2.5-0.8,3.7c-0.9-0.8-1.8-1.5-2.7-2.2c0.2-1,0.5-2.1,0.7-3.2C178.2,90.9,179.1,91.5,180,92.2z
			 M181.8,84.4c-0.5,2.2-1,4.5-1.5,6.7c-0.9-0.6-1.9-1.2-2.8-1.6c0.3-1.4,0.6-2.8,0.9-4.2l0.2-1c6.6-30.8,13.4-62.7,26.4-66.7
			c0.4,1.1,0.9,2.4,1.4,3.9C194.3,28,188,56.7,181.8,84.4z M168.6,89.9l0.3-1.6c1.1,0.1,2.1,0.2,3.1,0.4l-0.4,2.1
			C170.6,90.5,169.6,90.2,168.6,89.9z M175.2,99.7c0.8,0.8,1.6,1.7,2.5,2.7c-0.4,1.5-0.7,3.1-1.1,4.6c-0.7-0.9-1.5-1.9-2.3-2.9
			C174.5,102.6,174.9,101.2,175.2,99.7z M207.4,20.9c-0.4-1.2-0.9-2.4-1.3-3.6c0.5-0.1,1-0.1,1.4-0.1c0.1,0,0.2,0,0.3,0
			c0,0,0.1,0,0.1,0c0.4,0.9,0.9,2,1.4,3.1C208.7,20.4,208,20.6,207.4,20.9z M177.5,84l-0.2,0.9c-0.3,1.4-0.6,2.8-0.9,4.2
			c-1-0.4-2-0.7-3-1l0.9-4.2c7-34.3,14.2-69.8,28.9-70.6c0.5,1.1,1,2.2,1.4,3.3C190.9,20.7,184.1,52.9,177.5,84z M163.9,91.8
			l0.3-1.5c1.1,0.1,2.1,0.2,3.1,0.4l-0.4,2.1C165.9,92.4,164.9,92.1,163.9,91.8z M163.2,95.1l0.4-2.3c1,0.2,2,0.6,3,1
			c-0.2,1-0.4,1.9-0.6,2.9C165.2,96,164.2,95.5,163.2,95.1z M165.9,97.6c-0.2,1.2-0.5,2.4-0.7,3.6c-0.9-0.8-1.8-1.5-2.7-2.1l0.6-3
			C164.1,96.5,165,97.1,165.9,97.6z M164.9,102.4c-0.3,1.4-0.6,2.8-0.9,4.2c-0.9-1-1.7-1.8-2.5-2.6c0.3-1.3,0.5-2.5,0.8-3.8
			C163.1,100.8,164,101.5,164.9,102.4z M169.6,105.9c0.3-1.4,0.6-2.9,1-4.4c0.8,0.8,1.6,1.7,2.5,2.7c-0.4,1.5-0.7,3.1-1.1,4.6
			C171.2,107.8,170.4,106.9,169.6,105.9z M204.9,122c-2.7,0.2-5.5,0.1-8.4-0.3c-9.3-1.3-14.5-7.8-19-13.6c0.4-1.5,0.8-3,1.1-4.6
			c0.7,0.9,1.4,1.8,2.1,2.7c4.7,6,9.5,12.2,18.2,13.9c2.7,0.6,5.4,0.8,8.1,0.7l0,0l0.1,0c2.4-0.2,4.7-0.7,6.8-1.5
			C211.3,120.8,208.3,121.7,204.9,122z M207.1,119.8c-2.7,0.1-5.3-0.1-8-0.7c-8.4-1.7-13.1-7.7-17.6-13.6c-0.8-1.1-1.7-2.2-2.6-3.3
			c0.4-1.5,0.7-2.9,1-4.4c1.9,2,3.7,4.2,5.2,6.2c4.3,5.5,8.8,11.3,16.4,13.4c2.5,0.7,5.1,1.1,7.8,1.1c0,0,0,0,0,0l0,0l0.1,0
			c2.1-0.1,4.1-0.4,5.9-1.1C212.9,118.9,210.1,119.6,207.1,119.8z M209.3,117.7c-2.6,0-5.1-0.3-7.6-1c-7.3-2.1-11.7-7.7-15.9-13.1
			c-1.7-2.2-3.6-4.6-5.7-6.8c0.3-1.3,0.6-2.6,0.9-3.9c3.4,2.6,6,6,8.6,9.3l0,0c5.3,6.8,10.7,13.9,22,14.3c2,0.1,3.9-0.2,5.7-0.9
			C214.9,116.9,212.3,117.6,209.3,117.7C209.4,117.7,209.4,117.7,209.3,117.7z M190.4,101.6c-2.7-3.5-5.5-7-9.1-9.8
			c0.5-2.4,1.1-4.8,1.6-7.2c6.1-27.3,12.4-55.6,23.8-62.1c6.5,20.1,11.5,51.5,16.3,82l0.5,3.1c-0.6,1.5-1.2,2.9-1.9,4.2
			c-2.9,2.5-6,3.7-9.4,3.7c-0.2,0-0.3,0-0.5,0C200.8,115.1,195.5,108.2,190.4,101.6z M210.9,21.2c0.2,0,0.4,0,0.7,0
			c0.4,0,0.9,0,1.3,0.1c5.6,11.1,10.4,29.4,15.6,59.1c-0.1,0.7-0.1,1.3-0.2,2c-0.3,3.3-0.7,7-1.3,10.7
			C222,61.3,217.2,36.9,210.9,21.2z M209.8,21.3c7.2,17.8,12.4,48.1,16.7,75.1c-0.6,3.3-1.3,6.3-2.2,8.9l-0.2-1
			c-5.1-32.2-9.9-62.6-16.3-82.3C208.4,21.7,209.1,21.5,209.8,21.3z M227.6,96c0.7-4.1,1.2-8.3,1.6-12.2c0.1,0.8,0.3,1.5,0.4,2.3
			c-0.6,3.3-1.2,6.7-1.9,10.1L227.6,96z M230.1,89.1c0.1,0.4,0.1,0.9,0.2,1.3c-0.7,2.9-1.4,5.4-2.1,7.6
			C229,95,229.6,91.9,230.1,89.1z M230.6,85.8l0.2-1.2c0.5-3.2,1-6,1.5-8.5c0.2,1.1,0.4,2.2,0.6,3.3c-0.6,2.4-1.2,4.9-1.8,7.2
			l-0.3,1.1L230.6,85.8z M233.7,76.8c-0.2-1.2-0.5-2.4-0.7-3.6c0.6-2.4,1.3-4.4,2.1-6.1c0.3,1.2,0.5,2.4,0.8,3.7
			C235.1,72.5,234.4,74.4,233.7,76.8z M232.2,86.7c0.4-1.7,0.8-3.4,1.2-5.1c0.1,0.8,0.3,1.6,0.4,2.4c-0.5,1.5-1,3-1.5,4.5
			c-0.3,0.9-0.6,1.8-0.9,2.7l-0.2-1.1C231.6,89,231.9,87.9,232.2,86.7z M233.3,88.9c0.3-0.9,0.6-1.8,0.9-2.8
			c0.1,0.6,0.2,1.1,0.3,1.7c-0.4,0.9-0.8,1.8-1.1,2.8c-0.5,1.2-0.9,2.3-1.4,3.5l-0.1-0.6C232.4,91.9,232.9,90.4,233.3,88.9z
			 M234.2,91.2l0.3-0.7c0.1-0.3,0.2-0.6,0.4-0.9l0.2,1.1l-0.8,1.7c-0.6,1.2-1.2,2.5-1.9,3.7l0-0.3C232.9,94.3,233.6,92.7,234.2,91.2
			z M235.9,89.1l-0.2-1.4c0.9-2.2,1.7-4.1,2.5-5.7c0.1,0.7,0.3,1.4,0.4,2.2C237.6,85.8,236.7,87.6,235.9,89.1z M235.3,85.8
			c-0.1-0.7-0.2-1.4-0.4-2c0.8-2.5,1.6-4.5,2.3-6.2c0.2,0.9,0.4,1.8,0.5,2.7C237.1,81.9,236.3,83.7,235.3,85.8z M234.6,81.8
			c-0.2-0.9-0.3-1.9-0.5-2.8c0.7-2.6,1.4-4.8,2.1-6.5c0.2,1.1,0.5,2.2,0.7,3.4C236.2,77.5,235.4,79.4,234.6,81.8z M230.1,82.8
			c-0.2-1-0.4-2-0.5-3.1c0.4-4.1,0.9-7.4,1.5-10.4c0.3,1.4,0.6,2.8,0.8,4.2C231.2,76.5,230.6,79.8,230.1,82.8z M230.7,92.9l0.1,0.7
			c-0.5,1.6-1,3-1.5,4.3C229.7,96.4,230.2,94.7,230.7,92.9z M231.2,96c-0.3,0.7-0.6,1.3-0.8,1.9c0.3-0.7,0.5-1.4,0.8-2.2L231.2,96z
			 M235.1,92.9l0.2-0.5c2,11.7,3.8,23.9,5.6,35.6c5.5,36.4,10.7,70.7,18.7,85.1c-0.3,0.2-0.7,0.3-1.1,0.4
			c-10-12.1-16.1-51.6-22.5-93.4c-1.2-8-2.3-15.2-3.5-22.3C233.4,96.2,234.3,94.5,235.1,92.9z M238.8,85.7c3,16.2,5.5,33.5,8,50.2
			c4.5,30.7,8.8,59.7,14.7,74.8c-0.3,0.7-0.7,1.3-1.1,1.8c-7.8-14.2-13-48.3-18.4-84.5c-1.9-12.3-3.8-24.9-5.8-37.2
			C237.2,88.7,238,87.1,238.8,85.7z M232.6,71c-0.3-1.4-0.6-2.9-0.9-4.3c0.6-2,1.3-3.6,2.1-4.8c0.3,1.2,0.6,2.4,0.9,3.7
			C233.9,67,233.2,68.8,232.6,71z M214.2,21.4c0.5,0.1,0.9,0.2,1.4,0.4c5.5,8.5,10.4,23.4,15,45.4c-0.8,2.8-1.3,6.1-1.6,9.2
			C224.2,49.7,219.4,32.1,214.2,21.4z M211.6,20c-0.4,0-0.7,0-1.1,0.1c-0.4-1-0.8-1.9-1.2-2.8c0.6,0.1,1.1,0.2,1.7,0.4
			c0.5,0.8,0.9,1.6,1.4,2.4C212,20,211.8,20,211.6,20z M205.7,16.2c-0.4-1-0.8-2-1.3-3c0.5,0,1,0.1,1.6,0.3c0.5,0.9,1,1.7,1.4,2.5
			C206.9,16,206.3,16.1,205.7,16.2z M173.1,83.6l-0.9,4.2c-1-0.2-2.1-0.3-3.2-0.4l0.8-4c7.1-36.4,14.5-74,29.6-74.3
			c0.5,0,1.1,0,1.7,0.2c0.5,0.9,1,1.8,1.4,2.8C187.4,13.6,180.1,49.2,173.1,83.6z M159.2,93.7l0.3-1.5c1.1,0.1,2.2,0.2,3.1,0.4
			l-0.4,2.1C161.2,94.3,160.2,94,159.2,93.7z M147.7,150.2c0.4-0.8,0.8-1.5,1.2-2.2c0.5,0.1,1.1,0.2,1.6,0.3c-0.4,0.7-0.9,1.3-1.4,2
			c-0.2,0-0.5,0-0.7,0C148.2,150.3,148,150.2,147.7,150.2z M152.5,147.3c4.3-7.5,8.1-19.4,12.2-38.4c0.8,1,1.6,2,2.3,2.9
			c-4.3,17.9-8.5,29.2-13.2,35.4c-0.2,0-0.5,0-0.7,0C152.9,147.3,152.7,147.3,152.5,147.3z M169.3,107.1c0.8,0.9,1.5,1.9,2.3,2.9
			c-0.4,1.6-0.8,3.1-1.2,4.6c-0.7-0.8-1.3-1.7-2-2.5l-0.3-0.3C168.6,110.2,168.9,108.7,169.3,107.1z M173.9,105.3
			c0.8,0.9,1.5,1.9,2.3,2.9c-0.4,1.5-0.8,3-1.2,4.5c-0.8-1-1.5-1.9-2.2-2.8C173.2,108.4,173.5,106.8,173.9,105.3z M262,212
			c0.4,1,0.8,1.9,1.2,2.7c-0.3,0.3-0.7,0.5-1,0.6c-0.5-0.6-0.9-1.2-1.3-1.9C261.4,213.1,261.7,212.6,262,212z M262.1,209.1
			c-5.7-15.5-9.8-43.6-14.2-73.4c-2.5-17.2-5.2-35-8.2-51.6c0.9-1.5,1.7-2.9,2.6-4.2c4.1,20.2,7.4,43.3,10.4,63.7
			c3.4,23.9,6.6,46.4,10.6,61.3C262.9,206.6,262.5,207.9,262.1,209.1z M239.4,82.6c-0.1-0.8-0.3-1.6-0.5-2.4
			c0.8-1.7,1.6-3.1,2.5-4.5c0.2,0.9,0.4,1.8,0.6,2.8C241.2,79.8,240.3,81.1,239.4,82.6z M238.6,78.7c-0.2-1-0.4-1.9-0.6-2.9
			c0.8-1.7,1.6-3.1,2.4-4.4c0.2,1,0.5,2,0.7,3C240.3,75.7,239.5,77.1,238.6,78.7z M237.7,74.2c-0.2-1.1-0.5-2.3-0.7-3.4
			c0.7-1.5,1.5-2.8,2.4-3.9c0.3,1.1,0.5,2.1,0.8,3.2C239.3,71.2,238.5,72.6,237.7,74.2z M236.7,69.2c-0.3-1.2-0.5-2.4-0.8-3.6
			c0.7-1.2,1.5-2.2,2.4-3c0.3,1,0.5,2,0.8,3C238.2,66.6,237.4,67.8,236.7,69.2z M235.6,64.3c-0.3-1.2-0.5-2.3-0.8-3.4
			c0.8-0.8,1.6-1.4,2.6-1.8l0.1,0.5c0.1,0.4,0.2,0.8,0.3,1.2c0.1,0.2,0.1,0.4,0.2,0.6l0.1,0.3C237.1,62.3,236.3,63.2,235.6,64.3z
			 M234.5,59.8c-3.9-15.8-8.2-27-12.9-34.2c5.8,5.5,10.9,16.2,15.5,32.5C236.1,58.5,235.3,59,234.5,59.8z M231.3,64.9
			c-4.2-19.9-8.7-33.8-13.8-42.3c0.3,0.2,0.6,0.3,0.9,0.5c5.6,6.7,10.6,19,15.1,37.6C232.7,61.8,232,63.2,231.3,64.9z M213.6,20.1
			c-0.3-0.6-0.7-1.2-1-1.9c0.3,0.1,0.6,0.3,0.9,0.5c0.4,0.5,0.8,1.1,1.2,1.6C214.3,20.3,213.9,20.2,213.6,20.1z M208.7,16.1
			c-0.4-0.7-0.7-1.4-1.1-2.1c0.4,0.2,0.8,0.4,1.2,0.6c0.4,0.5,0.8,1,1.2,1.7C209.6,16.2,209.1,16.1,208.7,16.1z M203.9,12
			c-0.4-0.8-0.8-1.6-1.1-2.2c0.4,0.1,0.7,0.3,1.1,0.5c0.4,0.5,0.8,1.1,1.3,1.9C204.8,12.1,204.3,12,203.9,12z M199.5,8
			c-16,0.2-23.5,38.3-30.7,75.2l-0.9,4.3c-0.1,0.1-0.1,0.2-0.1,0.3c0,0,0,0.1,0,0.2l-0.3,1.7c-1-0.2-2.1-0.3-3.1-0.4l1.2-6.3
			c7.2-38.2,14.6-77.6,29.9-77.9c0,0,0.1,0,0.1,0c1.2,0,2.4,0.3,3.6,0.9c0.4,0.6,0.9,1.2,1.3,2C200.1,8,199.8,8,199.5,8z M162,95.6
			c-0.2,0.9-0.4,1.9-0.6,2.8c-0.9-0.6-1.9-1.1-2.9-1.5l0.4-2.3C160,94.9,161,95.2,162,95.6z M161.2,99.5c-0.2,1.2-0.5,2.4-0.7,3.6
			c-0.9-0.8-1.8-1.5-2.7-2.1c0.2-1,0.4-2,0.6-3C159.4,98.4,160.3,98.9,161.2,99.5z M160.3,104.2c-2.9,14-6.8,31.4-12,42.5
			c-0.6-0.2-1.3-0.4-1.9-0.6c4.7-11.8,8.3-28.8,11.2-44.1C158.5,102.7,159.4,103.4,160.3,104.2z M147.7,147.7
			c-0.4,0.9-0.9,1.7-1.3,2.4c-0.6-0.1-1.2-0.1-1.7-0.3c0.4-0.9,0.8-1.8,1.2-2.7C146.5,147.4,147.1,147.6,147.7,147.7z M120.5,120.6
			c-1.5-5.2-3.1-10.6-5-15.7c1.9,4.3,3.6,8.9,5.3,13.3c5.7,15,11.1,29.1,22.2,32.5c-0.5,0.9-0.9,1.7-1.3,2.4
			C129.6,151.8,125.2,136.6,120.5,120.6z M138.8,156.2c-12.9,0-16.2-15.2-20-32.8c-1.3-6.2-2.7-12.6-4.6-18.7
			c2,5.2,3.6,10.8,5.2,16.2c4.8,16.2,9.3,31.5,21.7,33.3c-0.5,0.8-0.9,1.4-1.3,2c-0.3,0-0.5,0-0.8,0
			C139,156.2,138.9,156.2,138.8,156.2z M143.7,153.2c-0.2,0-0.5,0-0.7,0c0.4-0.7,0.8-1.5,1.2-2.3c0.5,0.1,1.1,0.2,1.6,0.3
			c-0.4,0.7-0.9,1.4-1.3,2C144.2,153.2,144,153.2,143.7,153.2L143.7,153.2z M143.6,149.6c-10.8-3.1-16.1-17-21.7-31.8
			c-1.5-4-3.1-8.2-4.8-12.1c1.7,3.3,3.3,6.7,4.9,10c6.2,13,12.6,26.4,22.9,31.1C144.4,147.8,144,148.7,143.6,149.6z M134.4,159.2
			c-0.1,0-0.1,0-0.2,0c-12.4,0-14.7-15.2-17.2-32.8c-1.1-7.5-2.3-15.6-4.4-23.3c2.2,6.6,3.7,13.7,5.2,20.6
			c3.9,18.1,7.3,33.7,21.1,33.7c0,0,0,0,0.1,0c-0.4,0.5-0.8,0.9-1.2,1.3C136.6,159,135.5,159.2,134.4,159.2z M141.4,155.9
			c0.4-0.5,0.7-1.1,1.1-1.6l0.2,0c0.3,0,0.6,0.1,0.9,0.1c-0.4,0.5-0.8,0.9-1.2,1.3C142,155.8,141.7,155.9,141.4,155.9z M146.1,153
			c0.4-0.5,0.7-1.1,1.1-1.6l0.2,0c0.3,0,0.6,0,0.9,0.1c-0.4,0.5-0.8,0.9-1.2,1.3C146.7,152.8,146.4,152.9,146.1,153z M150.8,150
			c0.4-0.5,0.7-1.1,1.1-1.6c0.1,0,0.2,0,0.3,0c0.3,0,0.6,0,0.8,0c-0.4,0.5-0.8,0.9-1.2,1.3C151.4,149.8,151.1,149.9,150.8,150z
			 M155.5,147c4.5-6.4,8.3-17,12.5-34c0.7,0.9,1.5,1.9,2.2,2.8c-4.4,16.4-8.8,26.2-13.8,31C156.1,146.9,155.8,146.9,155.5,147z
			 M173.1,119.3c-4.4,14.2-8.8,22.6-14,26c4.3-5.4,8.1-14.5,11.8-28.5C171.8,117.7,172.5,118.5,173.1,119.3z M171.3,115.7
			c0.4-1.5,0.8-3,1.2-4.5c0.7,0.9,1.4,1.8,2.2,2.8c-0.4,1.4-0.8,2.9-1.2,4.3C172.8,117.4,172.1,116.6,171.3,115.7z M175.6,114.9
			c4.3,5,9.5,9.6,18.1,10.3c3,0.2,5.9,0.2,8.7-0.1v0l0.3,0c0,0,0,0,0,0l0.2,0v0c2.8-0.4,5.4-1.1,7.8-2.1c-3,1.7-6.5,2.8-10.4,3.4
			c-2.8,0.4-5.9,0.6-9.2,0.5c-6.6-0.2-11.8-2.6-16.8-7.8C174.8,117.8,175.2,116.4,175.6,114.9z M223.2,110L223.2,110
			C223.2,110,223.2,110,223.2,110C223.2,110,223.2,110,223.2,110z M225.1,109.6c1-1.2,1.9-2.4,2.9-3.9l1,6.6
			c6.9,44.3,13.5,86.1,24.7,99.6c-14-9.4-22.1-60.7-28.7-102.2C225,109.7,225,109.7,225.1,109.6z M228.9,104.3
			c0.9-1.5,1.9-3.1,2.8-4.9c1.1,6.7,2.1,13.4,3.2,20.8c6.3,41,12.3,79.8,22.1,93.1c-0.2,0-0.4-0.1-0.6-0.1
			c-12.2-10.3-19.4-56.4-26.4-101.1L228.9,104.3z M260.2,214.1c0.3,0.4,0.5,0.8,0.8,1.2c-0.3,0-0.6-0.1-0.9-0.2
			c-0.2-0.2-0.5-0.4-0.7-0.7C259.7,214.4,259.9,214.3,260.2,214.1z M332.2,36.2c-0.2,0-0.4,0-0.6,0c-6.2,0.1-12.2,1.3-17.9,3.6
			c-14.5,5.9-24.7,22.8-31.2,51.8c-5.5,24.7-7.5,54.1-9,77.7c-1.4,21-2.6,39.2-5.8,45.6c-0.5-1.1-0.9-2.2-1.3-3.5
			c2.8-7.8,3.8-23.9,5.1-44.3c1.6-23.8,3.5-53.4,9.1-78.2c6.5-28.9,16.6-45.8,30.9-51.6c5.6-2.3,11.6-3.5,17.7-3.6
			c0.2,0,0.3,0,0.5,0c10.1,0,20.3,4.1,28.9,11.5C350.6,39.3,341.4,36.2,332.2,36.2z M265.7,212.9c0.4,1.1,0.8,2.1,1.2,3.1
			c-0.3,0.4-0.7,0.7-1.1,0.9c-0.4-0.6-0.8-1.3-1.3-2.2C265,214.3,265.4,213.7,265.7,212.9z M274.7,169.3c1.5-23.6,3.5-52.9,9-77.5
			c6.4-28.6,16.4-45.3,30.5-51c5.5-2.2,11.4-3.4,17.5-3.5c10.5-0.1,20.8,3.8,29.5,11.2c-8.1-5.7-17.5-8.8-27-8.6
			c-6.1,0.1-12,1.3-17.7,3.6C302.1,49.2,292,66,285.6,94.7c-5.5,24.4-7.4,53.5-8.9,76.9c-1.5,23.3-2.8,43.5-7.1,47
			c-0.4-0.7-0.9-1.6-1.3-2.5C272,210.1,273.2,192.1,274.7,169.3z M328.2,134.1c13.5-0.2,26.1-5.6,35.6-15.3s14.5-22.5,14.3-36
			c0-3.6-0.6-7.4-1.6-11.2c1.5,4.5,2.3,9.1,2.3,13.4c0.4,27-21.3,49.2-48.2,49.6c-4,0-8-0.4-11.9-1.3
			C321.8,133.9,325,134.2,328.2,134.1z M365.8,120.7c9.3-9.6,14.4-22.2,14.2-35.6c-0.1-3.7-0.6-7.5-1.7-11.4
			c1.5,4.6,2.3,9.2,2.4,13.7c0.2,12.9-4.7,25.1-13.7,34.3c-9,9.3-21.1,14.5-34,14.6c-4,0-8-0.4-11.9-1.3c3.1,0.6,6.3,0.8,9.4,0.8
			C344,135.6,356.4,130.2,365.8,120.7z M381.8,87.4c-0.1-4.1-0.7-8.4-2-12.6c1.7,4.9,2.7,9.9,2.7,14.9c0.2,12.7-4.6,24.8-13.5,33.9
			c-8.9,9.1-20.8,14.3-33.5,14.5c-3.9,0.1-7.9-0.4-11.7-1.3c3.1,0.5,6.2,0.8,9.3,0.8C360.3,137.1,382.2,114.6,381.8,87.4z
			 M335.5,139.2c13-0.2,25.2-5.4,34.3-14.8c9.1-9.4,14-21.7,13.8-34.7c-0.1-3.9-0.6-7.9-1.7-11.8c1.6,4.6,2.4,9.4,2.5,14.1
			c0.2,12.6-4.6,24.5-13.4,33.5s-20.6,14.1-33.1,14.3c-3.9,0-7.8-0.4-11.6-1.3C329.3,139,332.4,139.2,335.5,139.2z M322.2,51.7
			c5.3-2.2,11-3.3,16.8-3.4c0.2,0,0.4,0,0.6,0c11.5,0,22.5,4.2,31,11.9c4,7.6,6.2,15.5,6.3,22.6c0.2,13.2-4.8,25.7-14,35.2
			c-9.2,9.5-21.6,14.8-34.8,15c-0.2,0-0.5,0-0.7,0c-6.7,0-13.3-1.3-19.5-4c-2.3-2.1-4.4-4.5-6.1-6.9c-0.1-0.1-0.2-0.2-0.4-0.2
			c-0.1,0-0.3,0-0.4,0.1c-0.2,0.2-0.3,0.5-0.2,0.7c-0.7-0.8-1.3-1.6-1.9-2.5c-0.1-0.1-0.2-0.2-0.4-0.2c-0.2,0-0.3,0-0.4,0.1
			c-0.1,0.1-0.2,0.2-0.2,0.4c0,0.1,0,0.2,0.1,0.3c-0.7-0.8-1.3-1.6-1.9-2.5c-0.1-0.1-0.2-0.2-0.4-0.2c-0.2,0-0.3,0-0.4,0.1
			c-0.1,0.1-0.2,0.2-0.2,0.4c0,0.1,0,0.2,0.1,0.3c-0.7-0.8-1.3-1.7-1.9-2.5c-0.1-0.1-0.2-0.2-0.4-0.2c-0.2,0-0.3,0-0.4,0.1
			c-0.2,0.2-0.3,0.5-0.2,0.7c-0.7-0.8-1.3-1.7-1.9-2.5c0,0,0-0.1-0.1-0.1c0.8-4.7,1.6-9.1,2.5-13.2
			C298.9,73.4,308.6,57.2,322.2,51.7z M265.2,211.4c-0.3,0.9-0.7,1.7-1.1,2.3c-0.5-0.9-0.9-2-1.3-3.1c0.4-1,0.8-2.1,1.1-3.5
			C264.3,208.7,264.8,210.1,265.2,211.4z M263.8,215.7c0.3,0.5,0.6,1.1,0.9,1.5c-0.3,0-0.6,0-0.8-0.1c-0.3-0.3-0.6-0.6-0.9-0.9
			C263.3,216.1,263.6,215.9,263.8,215.7z M267.5,217.1c0.3,0.7,0.7,1.3,1,1.9c-0.1,0-0.2,0-0.3,0c-0.2,0-0.4,0-0.7-0.1
			c-0.3-0.3-0.6-0.7-1-1.1C266.9,217.7,267.2,217.4,267.5,217.1z M268.9,220.1c0.1,0,0.2,0,0.2-0.1c0.1,0.1,0.2,0.2,0.2,0.3
			C269.2,220.3,269.1,220.2,268.9,220.1z M277.8,171.7c1.5-23.3,3.4-52.4,8.9-76.7c6.4-28.3,16.2-44.9,30.2-50.5
			c5.5-2.2,11.3-3.4,17.2-3.5c10.7-0.1,21.1,3.7,29.8,11.1c-8.1-5.7-17.6-8.7-27.4-8.5c-6,0.1-11.9,1.3-17.5,3.5
			c-14.1,5.7-24.1,22.3-30.5,50.8c-5.4,24.2-7.3,53-8.8,76.1c-1.6,25.2-3,46.9-8.3,47c-0.1,0-0.1,0-0.2,0c0,0,0,0-0.1,0
			c-0.4-0.4-0.7-0.9-1.1-1.4C274.9,215.8,276.1,197.2,277.8,171.7z M272.3,221.9c5.6-1.7,6.8-20.3,8.6-47.9
			c1.2-18.3,2.6-40.1,5.8-60.4c0.6,0.8,1.2,1.6,2,2.5c-3.2,20-4.6,41.4-5.8,60.2c-1.6,24.9-3,46.4-8.2,46.5
			C273.9,222.8,273.1,222.5,272.3,221.9z M287.4,112.5c-0.1-0.1-0.2-0.2-0.4-0.2c0,0,0,0,0,0c0.8-4.9,1.7-9.6,2.7-14.2
			c6.3-28.1,16-44.4,29.8-50c5.4-2.2,11.1-3.3,17-3.4c0.2,0,0.4,0,0.6,0c10.8,0,21.2,3.9,29.7,11.1c-8-5.6-17.5-8.6-27.2-8.6
			c-0.2,0-0.4,0-0.6,0c-6,0.1-11.8,1.2-17.2,3.5c-16.1,6.5-26.8,27.4-32.8,63.9C288.4,113.9,287.9,113.2,287.4,112.5z M328.8,140.1
			c3,0.5,6,0.8,9.1,0.7c26.6-0.4,48-22.3,47.6-48.9c-0.1-4.1-0.7-8.2-1.8-12.2c1.6,4.6,2.5,9.5,2.5,14.5
			c0.4,25.7-20.2,46.8-45.9,47.2C336.4,141.5,332.6,141,328.8,140.1z M268.1,164.7l0.3,0c1.6-24,3.5-53.9,9.2-79
			c6.6-29.2,16.8-46.3,31.3-52.1c5.7-2.3,11.7-3.5,17.9-3.6c10.1-0.1,20.3,3.9,29.1,11.5c-8.1-5.9-17.1-9-26.2-9c-0.2,0-0.4,0-0.5,0
			c-6.3,0.1-12.3,1.3-18.1,3.6c-14.7,5.9-25,23.1-31.6,52.4c-5.6,24.9-7.6,54.6-9.1,78.4c-1.2,18.4-2.2,34.3-4.6,42.6
			c-0.4-1.4-0.9-3-1.4-4.7c1.9-8.8,2.8-23.3,3.9-40.1L268.1,164.7L268.1,164.7L268.1,164.7L268.1,164.7z M161.2,82.6
			c7.3-39.9,14.8-81.2,30.2-81.4c0,0,0.1,0,0.1,0c2.1,0,4.1,1.1,6.1,3.1c-0.7-0.2-1.4-0.3-2.1-0.3c0,0-0.1,0-0.1,0
			c-16.2,0.2-23.7,40.2-31,78.8l0,0.1c-0.5,2.9-1.1,5.8-1.7,8.7c-1-0.2-2-0.3-3.1-0.4C160.2,88.3,160.7,85.5,161.2,82.6l-0.3,0v0
			L161.2,82.6z"/>
		<path class="st0" d="M566.8,124.8L566.8,124.8c-0.3-0.2-0.4-0.3-0.6-0.4l-0.1-0.1c-4.5-3.2-9.1-5.4-14.1-6.9
			c-3.6-1.1-6.9-2.2-10.2-3.2l-0.7-0.2c-3.3-1.1-6.3-2-9.1-2.9c0.7-0.4,1.3-0.9,2-1.3c6,1.1,12.6,3,20.5,5.6
			c3.5,1.1,6.8,2.6,10.1,4.6c0.2,0.1,0.4,0.2,0.6,0.4l0.7,0.4l-0.4-1.6l-0.1-0.1c-0.2-0.1-0.4-0.3-0.6-0.4c-3.2-1.8-6.4-3.3-9.8-4.4
			c-7.4-2.4-13.5-4.2-19.4-5.4c0.6-0.3,1.1-0.7,1.7-1c6.2,0.4,12.9,1.8,20.1,4.3c2,0.7,4,1.5,6,2.5l0.2,0.1c0.1,0.1,0.3,0.1,0.4,0.2
			l0.6,0.3l-0.4-1.5l-0.7-0.4c-1.9-0.9-3.8-1.7-5.7-2.4c-6.7-2.3-12.8-3.7-18.6-4.3c0.5-0.3,1-0.5,1.6-0.8c6.5-0.4,13.1,0.6,19.4,3
			c0.7,0.3,1.4,0.5,2,0.8l1.2,0.5l-0.4-1.4l-0.2-0.1c-0.2-0.1-0.3-0.1-0.5-0.2c-0.4-0.2-0.9-0.4-1.3-0.5l-0.4-0.1
			c-5.5-2.1-11.1-3.2-16.7-3.2c-0.2,0-0.4,0-0.5,0c0.2-0.1,0.4-0.2,0.5-0.2c6.2-1.3,12-1.1,17.1,0.6c0.2,0.1,0.4,0.1,0.6,0.2
			l0.6,0.2l-0.3-1.4l-0.7-0.2c-3.8-1.2-7.8-1.6-12.1-1.3c4.1-1.3,7.8-1.7,11.2-1.4c0.2,0,0.4,0,0.5,0.1l0.5,0.1l-0.3-1.3l-0.2,0
			c-0.2,0-0.4,0-0.6-0.1c-4.8-0.5-10.3,0.7-16.5,3.4l0,0c-2.1,0.4-4.2,1-6.3,1.8c-2.5,0.3-4.9,0.9-7.1,1.6c-2,0.1-4,0.4-5.9,0.8
			c-2.4-0.1-4.5,0.1-6.6,0.4c-9.7-0.7-17.7,2.1-26.9,9.4c-1.7,1.4-3.7,3.2-5.9,5.1c-6.2,5.6-14.6,13.2-24.2,17
			c-25.4-6.3-42.3-30.7-39.3-56.7c3.3-28.7,29.3-49.3,57.9-46c1.2,0.1,2.3,0.3,3.5,0.5c0.5,0.1,1,0.2,1.4,0.3l0.3,0.1
			c0.1,0,0.2,0.1,0.4,0c0.3,0.1,0.7,0.2,1,0.2l0.5,0.2c0.1,0,0.2,0.1,0.3,0c0.5,0.1,1,0.3,1.6,0.4c0.1,0,0.3,0,0.5-0.1
			c0.1-0.1,0.2-0.2,0.3-0.3c0-0.1,0-0.3,0-0.4c-0.1-0.1-0.2-0.2-0.3-0.3c-0.7-0.2-1.5-0.4-2.4-0.6c-1.1-0.4-2.2-0.8-3.4-1.1
			c-1-0.4-2-0.7-3.1-1c-1.2-0.4-2.3-0.9-3.5-1.2c-1-0.4-2-0.7-2.8-1c0,0-0.1,0-0.1,0c-4.6-1.8-9.4-3-14.4-3.6
			c-15.9-1.8-31.1,1.8-42.9,10.2c-12.2,8.7-19.8,22.1-21.6,37.6c-3.8,32.8,19.3,62.4,51.5,66.1c1,0.1,2,0.2,3,0.2
			c1.2,0,2.4-0.1,3.6-0.2c1.6,0.1,3.1,0,4.6-0.2c1.6,0,3.2,0,4.8-0.2c1.4,0,2.9,0,4.4-0.2c1.7,0,3.4,0,5.1-0.2c0.3,0,0.6,0,0.9,0
			c18.5,0.1,35.9-10.3,45.3-19.4c4-3.8,8.7-7.7,13.4-10.9c3.1,0.9,6.3,1.9,9.8,3.1l0.9,0.3c3.2,1.1,6.6,2.1,10.3,3.2
			c5,1.5,9.7,3.8,14.2,7.1l0.1,0.1c0.2,0.1,0.4,0.3,0.6,0.4l0.7,0.5L566.8,124.8z M456.2,29.9c-13.2-0.2-25.6,3.6-35.6,10.9
			c-12,8.7-19.5,22-21.3,37.3c-1.8,15.3,2.4,30.4,11.7,42.6c7.8,10.2,18.5,17.3,30.6,20.6c-29.4-5.5-49.9-33.5-46.4-64.2
			c1.7-15.3,9.3-28.3,21.2-36.8c9.7-6.9,21.8-10.5,34.7-10.5C452.8,29.6,454.5,29.7,456.2,29.9z M458.6,140.2
			C458.6,140.3,458.5,140.3,458.6,140.2c-27.1-5.4-45.8-31.1-42.6-58.6c1.6-14.2,8.6-26.7,19.8-35.4c9.5-7.4,21.1-11.3,33.2-11.2
			c1.5,0,3,0.1,4.5,0.2c0,0,0,0,0,0c-26.9-0.2-50.3,20.2-53.4,47.4C417.1,108.6,433.6,133.2,458.6,140.2z M412.3,120.3
			c-9.4-12-13.6-27-11.8-42.2c1.7-15,9.1-27.9,20.8-36.5c9.6-7,21.6-10.7,34.3-10.6c1.6,0,3.2,0.1,4.8,0.2c-0.1,0-0.2,0-0.3,0
			c-12.7-0.1-24.8,3.7-34.7,11.1c-11.8,8.8-19.2,21.9-20.9,36.9c-1.7,14.9,2.3,29.6,11.4,41.5c7.7,10.1,18.2,17.1,30.2,20.3
			C432.7,138.5,420.8,131.2,412.3,120.3z M417.3,120.6c-9.2-11.7-13.3-26.4-11.6-41.3c1.7-14.7,9-27.5,20.5-36.1
			c9.6-7.2,21.5-10.9,34-10.8c1.6,0,3.2,0.1,4.8,0.2c-0.1,0-0.2,0-0.3,0c-28.2-0.2-51.7,19.8-54.9,47.8
			c-3.2,27.8,14.5,53.5,40.9,60.5C437.4,138.4,425.7,131.3,417.3,120.6z M410.8,80.5c3.1-27.4,26.2-46.9,53.7-46.7
			c1.5,0,3,0.1,4.5,0.2c0,0-0.1,0-0.1,0c-12.3-0.1-24.2,3.9-33.9,11.4c-11.4,8.8-18.6,21.7-20.2,36.2c-1.6,13.6,2,27.1,9.9,38.2
			c7.4,10.3,18,17.6,30,20.8c-13.2-2.5-24.9-9.7-33.1-20.5C413,108.7,409.2,94.7,410.8,80.5z M537.6,106.3c-0.2,0.1-0.5,0.3-0.7,0.4
			c-0.1,0-0.3,0-0.4,0c0.3-0.1,0.6-0.2,0.9-0.3C537.4,106.3,537.5,106.3,537.6,106.3z M535,107.8c-0.4,0.3-0.9,0.5-1.3,0.8
			c-0.4-0.1-0.9-0.2-1.3-0.2c0.4-0.2,0.8-0.4,1.3-0.6C534.2,107.7,534.6,107.7,535,107.8z M530.6,107.8c-0.1,0.1-0.2,0.1-0.3,0.2
			c-0.2,0-0.3,0-0.5-0.1c0.1,0,0.1,0,0.2-0.1C530.2,107.9,530.4,107.9,530.6,107.8z M525.7,109.4c0.5-0.2,0.9-0.3,1.3-0.5
			c0.4,0,0.8,0.1,1.3,0.1c-0.4,0.2-0.9,0.5-1.3,0.7C526.6,109.6,526.2,109.5,525.7,109.4z M523.7,108.9L523.7,108.9
			c-0.1,0-0.2,0-0.3-0.1c0.2,0,0.4-0.1,0.6-0.1c0.1,0,0.1,0,0.2,0C524,108.8,523.9,108.9,523.7,108.9z M501,120.7l0.7-0.6
			c6.1-5.2,12.3-8.6,19-10.6c0.4,0.1,0.8,0.1,1.2,0.2c-7,3.3-12.4,7.4-15.8,10.4c-12.7,11.2-24.8,18.1-35.8,20.4
			C482.6,136.3,493.6,127,501,120.7z M500.9,119.2l-0.6,0.5c-8.2,7-20.6,17.6-34.4,20.8c-0.1,0-0.2,0-0.3,0
			c10.6-3.9,19.9-12,26.7-17.9c1.4-1.2,2.8-2.4,4-3.4c7-5.7,13.7-8.9,21-10c0.2,0,0.3,0,0.5,0C511.9,111.3,506.4,114.6,500.9,119.2z
			 M495.7,118.3c-1.2,1-2.6,2.2-4.1,3.5c-7.2,6.3-17.2,14.8-28.4,18.4c-0.3-0.1-0.6-0.1-0.8-0.2c9.1-4,17.1-11.2,22.9-16.6l0.1-0.1
			c2.3-2.1,4.1-3.7,5.8-5.1c7.2-5.7,13.8-8.6,20.9-9.2C506.5,110.8,501.1,113.8,495.7,118.3z M506.9,121c3.6-3.2,9.4-7.6,17-10.9
			c0.6,0.1,1.1,0.3,1.7,0.4c-5,2.9-9.9,6.6-14.3,10.5c-11,10.1-24.2,17.1-36.1,19.4C485.2,137.3,495.8,130.8,506.9,121z M516.5,122
			c-7.5,7.2-20.9,15.8-35.9,18.3c10.7-3.1,22.1-9.7,31.5-18.4c4.5-4.1,9.7-7.9,15.2-11c0.7,0.2,1.3,0.4,2,0.6
			C523,115.9,518.3,120.3,516.5,122L516.5,122z M528.8,110.1c0.6-0.3,1.2-0.6,1.8-0.9c0.6,0.1,1.2,0.2,1.7,0.3
			c-0.6,0.4-1.2,0.8-1.7,1.2C529.9,110.5,529.4,110.3,528.8,110.1z"/>
	</g>
	<path class="st0" d="M330.4,184.7l-6.6-15.5h-2.9l1.1,2.6l-5.1,12.7c-1,2.6-1.5,2.8-2.9,2.9v0.4h5.8v-0.4c-2,0-2.8-0.2-2.8-1.1
		c0-0.4,0.2-0.9,0.4-1.6l1.4-3.7h6.9l1.7,4c0.3,0.6,0.4,1.1,0.4,1.5c0,0.7-0.7,1-2.5,1v0.4h7.1v-0.4
		C331.7,187.4,331.3,186.9,330.4,184.7z M319.1,180.6l3.2-8.1l3.4,8.1H319.1z"/>
	<path class="st0" d="M365.1,179c4.2,0,6.9-1.9,6.9-4.9c0-3-2.1-4.6-6.2-4.6H357v0.4c2.3,0,2.5,0.2,2.5,1.7v14.1
		c0,1.5-0.3,1.7-2.5,1.7v0.4h8.6v-0.4c-2.9,0-3.3-0.3-3.3-1.7V179H365.1z M362.3,169.9h2.9c2.6,0,3.7,1.3,3.7,4.2
		c0,2.8-1.6,4.5-4.4,4.5h-2.2V169.9z"/>
	<path class="st0" d="M390.2,169.9v-0.4h-7.8v0.4c2.3,0,2.5,0.2,2.5,1.7v14.1c0,1.5-0.3,1.7-2.5,1.7v0.4h7.8v-0.4
		c-2.2,0-2.5-0.3-2.5-1.7v-14.1C387.7,170.1,387.9,169.9,390.2,169.9z"/>
	<path class="st0" d="M400.5,187.5v0.4h5.8v-0.4c-2,0-2.8-0.2-2.8-1.1c0-0.4,0.2-0.9,0.4-1.6l1.4-3.7h6.9l1.7,4
		c0.3,0.6,0.4,1.1,0.4,1.5c0,0.7-0.7,1-2.5,1v0.4h7.1v-0.4c-0.9-0.1-1.3-0.6-2.2-2.8l-6.6-15.5h-2.9l1.1,2.6l-5.1,12.7
		C402.4,187.2,401.9,187.4,400.5,187.5z M408.7,172.5l3.4,8.1h-6.6L408.7,172.5z"/>
	<path class="st0" d="M429.3,187.5v0.4h6.8v-0.4c-2.8,0-3.2-0.2-3.2-1.7v-12.3l11,14.5h1.6v-16.3c0-1.5,0.3-1.7,2.4-1.7v-0.4h-6.4
		v0.4c3,0,3.5,0.3,3.5,1.7v12.9l-11.3-15h-4.4v0.4c0.8,0,1,0.1,2.1,1.6l0.9,1.2v13C432.3,187.2,432.1,187.5,429.3,187.5z"/>
	<path class="st0" d="M477.9,178.7c0-5.7-4.1-9.6-9.5-9.6c-5.4,0-9.5,3.9-9.5,9.6c0,5.7,4.1,9.6,9.5,9.6
		C473.8,188.3,477.9,184.4,477.9,178.7z M462.1,178.7c0-5.6,2.4-9.2,6.3-9.2c3.9,0,6.3,3.6,6.3,9.2c0,5.6-2.4,9.2-6.3,9.2
		C464.5,187.9,462.1,184.3,462.1,178.7z"/>
	<path class="st0" d="M325,202.7c3.5,0,5.8,2.4,6.4,5.7h0.4v-5.9h-0.3c-0.2,0.7-0.5,0.9-0.9,0.9c-0.6,0-2.1-1.1-5.7-1.1
		c-5.8,0-10,4-10,9.7c0,5.7,4,9.4,10.2,9.4c2.7,0,5-0.7,6.8-1.7l0.2-5.1h-0.4c-1,4.3-3.2,6.4-6.6,6.4c-4.3,0-6.9-3.5-6.9-9.2
		C318.2,206.2,320.9,202.7,325,202.7z"/>
	<path class="st0" d="M353,202.3c-5.4,0-9.5,3.9-9.5,9.6c0,5.7,4.1,9.6,9.5,9.6s9.5-3.9,9.5-9.6C362.6,206.1,358.5,202.3,353,202.3z
		 M353,221c-3.9,0-6.3-3.6-6.3-9.2c0-5.6,2.4-9.2,6.3-9.2c3.9,0,6.3,3.6,6.3,9.2C359.3,217.4,356.9,221,353,221z"/>
	<path class="st0" d="M389.7,204.8c0-1.5,0.3-1.7,2.4-1.7v-0.4h-6.4v0.4c3,0,3.5,0.3,3.5,1.7v12.9l-11.3-15h-4.4v0.4
		c0.8,0,1,0.1,2.1,1.6l0.9,1.2v13c0,1.5-0.2,1.7-3.1,1.7v0.4h6.8v-0.4c-2.8,0-3.2-0.2-3.2-1.7v-12.3l11,14.5h1.6V204.8z"/>
	<path class="st0" d="M413.1,202.7c3.5,0,5.8,2.4,6.4,5.7h0.4v-5.9h-0.3c-0.2,0.7-0.5,0.9-0.9,0.9c-0.6,0-2.1-1.1-5.7-1.1
		c-5.8,0-10,4-10,9.7c0,5.7,4,9.4,10.2,9.4c2.7,0,5-0.7,6.8-1.7l0.2-5.1h-0.4c-1,4.3-3.2,6.4-6.6,6.4c-4.3,0-6.9-3.5-6.9-9.2
		C406.3,206.2,409,202.7,413.1,202.7z"/>
	<path class="st0" d="M447.4,215.5H447c-0.5,2.6-1.9,5.1-5.4,5.1h-2.6c-1.9,0-2.3-0.3-2.3-2.1v-6.7h3.7c2.8,0,3.9,0.3,3.9,3.1h0.4
		v-6.5h-0.4c0,2.8-1.1,3.1-3.9,3.1h-3.7v-8.4h4.4c3.4,0,5,1.5,5.5,4.2h0.4l-0.2-4.6h-15.4v0.4c2.3,0,2.5,0.2,2.5,1.7v14.1
		c0,1.5-0.3,1.7-2.5,1.7v0.4H447L447.4,215.5z"/>
	<path class="st0" d="M476.2,220.6c-0.2,0-0.5-0.3-1.4-1.4l-5.9-7.6c2.9-0.6,4.6-2.2,4.6-4.5c0-2.9-2.1-4.4-6.1-4.4h-8.8v0.4
		c2.3,0,2.5,0.2,2.5,1.7v14.1c0,1.5-0.3,1.7-2.5,1.7v0.4h7.9v-0.4c-2.2,0-2.6-0.2-2.6-1.7v-7.2h1.9l6.6,9.3h3.8V220.6z M463.9,211.4
		v-8.3h2.6c2.7,0,3.8,1.2,3.8,4.1c0,2.6-1.6,4.2-4.2,4.2H463.9z"/>
	<path class="st0" d="M501,202.1c-0.1,0.5-0.3,0.5-1.1,0.5h-13.6c-0.8,0-1-0.1-1.1-0.5h-0.3l-0.2,5.5h0.4c0.7-3.3,2.4-4.5,4.9-4.5
		h1.7v15.8c0,1.5-0.3,1.7-3.1,1.7v0.4h8.9v-0.4c-2.7,0-3.1-0.3-3.1-1.7v-15.8h1.7c2.5,0,4.2,1.2,4.9,4.5h0.4l-0.2-5.5H501z"/>
	<path class="st0" d="M521.3,202.3c-5.4,0-9.5,3.9-9.5,9.6c0,5.7,4.1,9.6,9.5,9.6c5.4,0,9.5-3.9,9.5-9.6
		C530.9,206.1,526.8,202.3,521.3,202.3z M521.3,221c-3.9,0-6.3-3.6-6.3-9.2c0-5.6,2.4-9.2,6.3-9.2c3.9,0,6.3,3.6,6.3,9.2
		C527.6,217.4,525.2,221,521.3,221z"/>
	<path class="st0" d="M327,249.5c0-2.4-1.2-4-3.6-5.2l-2.8-1.5c-2.1-1.1-2.8-2.1-2.8-3.9c0-1.9,1.3-3.1,3.3-3.1
		c2.8,0,4.5,2.6,5.2,5.7h0.4v-5.9h-0.3c-0.2,0.6-0.4,0.9-0.7,0.9c-0.6,0-1.6-1.1-4.5-1.1c-3.6,0-5.8,1.8-5.8,4.8
		c0,2.4,1.2,4.1,3.7,5.4l2.7,1.4c2.1,1.1,2.8,2.1,2.8,3.9c0,2-1.2,3.2-3.1,3.2c-2.9,0-4.7-2.4-5.8-6.4h-0.4v6.6h0.3
		c0.2-0.6,0.5-0.9,1-0.9c0.5,0,1.6,1.1,4.8,1.1C324.9,254.6,327,252.7,327,249.5z"/>
	<path class="st0" d="M348.7,253.8h-2.6c-1.9,0-2.3-0.3-2.3-2.1V245h3.7c2.8,0,3.9,0.3,3.9,3.1h0.4v-6.5h-0.4c0,2.8-1.1,3.1-3.9,3.1
		h-3.7v-8.4h4.4c3.4,0,5,1.5,5.5,4.2h0.4l-0.2-4.6h-15.4v0.4c2.3,0,2.5,0.2,2.5,1.7V252c0,1.5-0.3,1.7-2.5,1.7v0.4h15.6l0.4-5.5
		h-0.4C353.6,251.3,352.2,253.8,348.7,253.8z"/>
	<path class="st0" d="M371,252.1v-7.2h1.9l6.6,9.3h3.8v-0.4c-0.2,0-0.5-0.3-1.4-1.4l-5.9-7.6c2.9-0.6,4.6-2.2,4.6-4.5
		c0-2.9-2.1-4.4-6.1-4.4h-8.8v0.4c2.3,0,2.5,0.2,2.5,1.7V252c0,1.5-0.3,1.7-2.5,1.7v0.4h7.9v-0.4C371.4,253.8,371,253.5,371,252.1z
		 M371,236.2h2.6c2.7,0,3.8,1.2,3.8,4.1c0,2.6-1.6,4.2-4.2,4.2H371V236.2z"/>
	<path class="st0" d="M393.3,236.2c2.3,0,2.5,0.2,2.5,1.7V252c0,1.5-0.3,1.7-2.5,1.7v0.4h7.8v-0.4c-2.2,0-2.5-0.3-2.5-1.7v-14.1
		c0-1.5,0.2-1.7,2.5-1.7v-0.4h-7.8V236.2z"/>
	<path class="st0" d="M428.1,248.7h-0.4c-0.5,2.6-1.9,5.1-5.4,5.1h-2.6c-1.9,0-2.3-0.3-2.3-2.1V245h3.7c2.8,0,3.9,0.3,3.9,3.1h0.4
		v-6.5h-0.4c0,2.8-1.1,3.1-3.9,3.1h-3.7v-8.4h4.4c3.4,0,5,1.5,5.5,4.2h0.4l-0.2-4.6h-15.4v0.4c2.3,0,2.5,0.2,2.5,1.7V252
		c0,1.5-0.3,1.7-2.5,1.7v0.4h15.6L428.1,248.7z"/>
	<path class="st0" d="M448,244.3l-2.8-1.5c-2.1-1.1-2.8-2.1-2.8-3.9c0-1.9,1.3-3.1,3.3-3.1c2.8,0,4.5,2.6,5.2,5.7h0.4v-5.9H451
		c-0.2,0.6-0.4,0.9-0.7,0.9c-0.6,0-1.6-1.1-4.5-1.1c-3.6,0-5.8,1.8-5.8,4.8c0,2.4,1.2,4.1,3.7,5.4l2.7,1.4c2.1,1.1,2.8,2.1,2.8,3.9
		c0,2-1.2,3.2-3.1,3.2c-2.9,0-4.7-2.4-5.8-6.4h-0.4v6.6h0.3c0.2-0.6,0.5-0.9,1-0.9c0.5,0,1.6,1.1,4.8,1.1c3.5,0,5.7-1.9,5.7-5.1
		C451.6,247.2,450.4,245.5,448,244.3z"/>
</g>
</svg>
