<svg width="393" height="135" viewBox="0 0 393 135" fill="none" xmlns="http://www.w3.org/2000/svg">
<g filter="url(#filter0_d_496_18)">
<path d="M52.3885 50.04C63.1405 50.04 67.6205 44.856 71.1405 28.344C74.5965 12.024 72.3565 7.16 61.2205 7.16C55.9725 7.16 54.8845 8.248 53.3485 15.48L47.7805 41.72C46.2445 48.952 46.8205 50.04 52.3885 50.04ZM54.2445 51H35.1725L35.3005 50.36C40.3565 50.168 41.0605 47.416 42.2765 41.72L47.8445 15.48C49.0605 9.784 49.5085 7.032 44.5805 6.84L44.7085 6.2H63.7805C75.3005 6.2 80.1645 14.456 77.1565 28.6C74.1485 43 65.5085 51 54.2445 51ZM80.62 51L80.748 50.36C85.804 50.168 86.508 47.416 87.724 41.72L93.292 15.48C94.508 9.784 94.956 7.032 90.028 6.84L90.156 6.2H105.9L105.772 6.84C100.716 7.032 100.012 9.784 98.796 15.48L93.228 41.72C92.012 47.416 91.564 50.168 96.492 50.36L96.364 51H80.62ZM130.625 14.008L120.321 32.184H133.313L130.625 14.008ZM146.817 51H130.817L130.945 50.36C134.593 50.168 135.617 48.696 135.041 44.472L133.441 33.464H119.553L113.473 44.216C110.977 48.568 111.297 50.168 114.881 50.36L114.753 51H103.553L103.681 50.36C107.841 50.232 109.761 48.824 112.705 43.704L134.081 6.2H135.297L140.673 43.704C141.377 48.76 142.785 50.232 146.945 50.36L146.817 51ZM176.682 6.2L180.65 33.976L196.458 6.2H206.826L206.698 6.84C201.962 7.032 201.258 9.848 200.746 13.56L197.354 41.72C196.65 47.416 196.33 50.168 201.258 50.36L201.13 51H185.514L185.642 50.36C190.698 50.168 191.082 47.16 191.53 43.448L195.818 9.016L177.45 41.4H176.234L171.498 9.016L160.874 44.664C159.786 48.184 159.658 50.168 164.138 50.36L164.01 51H152.938L153.066 50.36C158.122 50.168 159.018 47.416 160.746 41.72L169.194 13.624C170.346 9.784 171.05 7.032 166.122 6.84L166.25 6.2H176.682ZM212.028 28.536C214.716 15.8 227.196 5.432 239.804 5.432C252.476 5.432 260.54 15.8 257.852 28.536C255.1 41.272 242.684 51.64 230.012 51.64C217.404 51.64 209.276 41.272 212.028 28.536ZM218.556 25.976C216.316 36.408 220.156 50.68 232.188 50.68C240.892 50.68 249.02 42.104 251.324 31.096C253.564 20.664 249.724 6.392 237.692 6.392C228.988 6.392 220.924 14.968 218.556 25.976ZM294.634 51L276.266 8.312L269.162 41.72C267.946 47.416 267.498 50.168 272.426 50.36L272.298 51H261.098L261.226 50.36C266.282 50.168 266.986 47.416 268.202 41.72L273.77 15.48C274.986 9.784 275.434 7.032 270.506 6.84L270.634 6.2H282.026L296.938 40.952L302.442 15.096C303.594 9.656 303.978 7.032 299.178 6.84L299.306 6.2H310.442L310.314 6.84C305.258 7.032 304.49 9.784 303.274 15.48L295.722 51H294.634ZM325.636 50.04C336.388 50.04 340.868 44.856 344.388 28.344C347.844 12.024 345.604 7.16 334.468 7.16C329.22 7.16 328.132 8.248 326.596 15.48L321.028 41.72C319.492 48.952 320.068 50.04 325.636 50.04ZM327.492 51H308.42L308.548 50.36C313.604 50.168 314.308 47.416 315.524 41.72L321.092 15.48C322.308 9.784 322.756 7.032 317.828 6.84L317.956 6.2H337.028C348.548 6.2 353.412 14.456 350.404 28.6C347.396 43 338.756 51 327.492 51ZM33.157 84.008L22.853 102.184H35.845L33.157 84.008ZM49.349 121H33.349L33.477 120.36C37.125 120.168 38.149 118.696 37.573 114.472L35.973 103.464H22.085L16.005 114.216C13.509 118.568 13.829 120.168 17.413 120.36L17.285 121H6.08499L6.21299 120.36C10.373 120.232 12.293 118.824 15.237 113.704L36.613 76.2H37.829L43.205 113.704C43.909 118.76 45.317 120.232 49.477 120.36L49.349 121ZM76.9375 121.64C62.9215 121.64 54.9215 111.784 57.6735 98.6C60.4895 85.416 72.7135 75.432 86.0255 75.432C91.0815 75.432 95.6255 76.776 98.3775 79.08L97.7375 85.672H97.0975C97.2895 79.72 93.5775 76.392 86.8575 76.392C75.9135 76.392 66.6975 85.032 64.0735 97.512C61.6415 109.032 65.7375 120.68 78.7935 120.68C85.1295 120.68 89.0975 117.864 91.6575 111.4H92.2975L90.1215 117.992C86.1535 120.488 81.8655 121.64 76.9375 121.64ZM98.37 121L98.498 120.36C103.554 120.168 104.258 117.416 105.474 111.72L111.042 85.48C112.258 79.784 112.706 77.032 107.778 76.84L107.906 76.2H123.65L123.522 76.84C118.466 77.032 117.762 79.784 116.546 85.48L114.114 96.872H134.594L137.026 85.48C138.242 79.784 138.69 77.032 133.762 76.84L133.89 76.2H149.57L149.442 76.84C144.386 77.032 143.682 79.784 142.466 85.48L136.898 111.72C135.682 117.416 135.234 120.168 140.162 120.36L140.034 121H124.354L124.482 120.36C129.538 120.168 130.242 117.416 131.458 111.72L134.402 97.832H113.922L110.978 111.72C109.762 117.416 109.314 120.168 114.242 120.36L114.114 121H98.37ZM147.505 121L147.633 120.36C152.689 120.168 153.393 117.416 154.609 111.72L160.177 85.48C161.393 79.784 161.841 77.032 156.913 76.84L157.041 76.2H172.785L172.657 76.84C167.601 77.032 166.897 79.784 165.681 85.48L160.113 111.72C158.897 117.416 158.449 120.168 163.377 120.36L163.249 121H147.505ZM180.614 76.2H210.246L210.054 82.6H209.414C209.35 78.312 207.75 77.16 201.094 77.16C193.158 77.16 190.598 79.016 189.19 85.672L186.822 97H189.318C194.63 97 200.326 97.192 201.798 90.216H202.438L200.582 104.36H199.942C200.454 98.024 194.886 97.96 189.062 97.96H186.63L183.686 111.528C182.278 118.184 183.942 120.04 192.262 120.04C200.902 120.04 203.526 118.248 205.19 114.6H205.83L203.27 121H171.078L171.206 120.36C176.262 120.168 176.966 117.416 178.182 111.72L183.75 85.48C184.966 79.784 185.414 77.032 180.486 76.84L180.614 76.2ZM230.197 121L224.501 82.856C223.861 78.632 222.197 76.968 218.293 76.84L218.421 76.2H234.997L234.869 76.84C229.557 76.968 230.133 80.424 230.517 83.816L234.933 113L252.085 82.408C253.877 79.08 254.389 77.032 250.037 76.84L250.165 76.2H261.429L261.301 76.84C257.333 76.968 255.285 78.504 252.789 82.984L231.477 121H230.197ZM268.196 76.2H297.828L297.636 82.6H296.996C296.932 78.312 295.332 77.16 288.676 77.16C280.74 77.16 278.18 79.016 276.772 85.672L274.404 97H276.9C282.212 97 287.908 97.192 289.38 90.216H290.02L288.164 104.36H287.524C288.036 98.024 282.468 97.96 276.644 97.96H274.212L271.268 111.528C269.86 118.184 271.524 120.04 279.844 120.04C288.484 120.04 291.108 118.248 292.772 114.6H293.412L290.852 121H258.66L258.788 120.36C263.844 120.168 264.548 117.416 265.764 111.72L271.332 85.48C272.548 79.784 272.996 77.032 268.068 76.84L268.196 76.2ZM317.157 85.672L314.341 99.048H316.069C326.373 99.048 330.789 95.976 332.517 87.976C334.053 80.616 331.621 77.16 324.837 77.16C320.101 77.16 318.629 78.76 317.157 85.672ZM314.789 121H299.045L299.173 120.36C303.589 120.296 304.613 118.76 306.149 111.72L311.717 85.48C313.189 78.44 312.805 76.904 308.453 76.84L308.581 76.2H326.501C335.781 76.2 340.197 80.424 338.661 87.72C337.445 93.352 333.029 97.576 326.117 99.56C333.413 101.8 335.141 105.512 333.925 113.576C333.029 118.888 333.669 120.36 336.421 120.36H336.869L336.741 121H332.133C328.421 121 327.141 118.824 327.845 113.896C329.253 103.016 326.757 100.008 315.877 100.008H314.149L311.653 111.72C310.117 118.76 310.501 120.296 314.917 120.36L314.789 121ZM358.545 121C364.369 121 369.553 117.544 370.513 113.064C371.281 109.672 369.297 106.856 362.769 101.16C354.449 93.928 352.209 90.024 353.169 85.352C354.449 79.528 360.145 75.56 367.249 75.56C372.561 75.56 377.425 77.672 380.113 81.064L377.361 87.784H376.721C378.705 81.576 374.737 76.2 368.145 76.2C363.345 76.2 359.953 78.632 359.057 82.856C358.225 86.568 360.017 89.32 368.145 96.488C375.057 102.44 377.169 106.152 376.273 110.568C374.865 116.968 367.633 121.64 358.801 121.64C352.465 121.64 347.857 119.336 344.657 114.408L347.921 106.152H348.561C345.745 113.96 350.481 121 358.545 121Z" fill="white"/>
</g>
<defs>
<filter id="filter0_d_496_18" x="0.184961" y="0.532129" width="391.827" height="134.008" filterUnits="userSpaceOnUse" color-interpolation-filters="sRGB">
<feFlood flood-opacity="0" result="BackgroundImageFix"/>
<feColorMatrix in="SourceAlpha" type="matrix" values="0 0 0 0 0 0 0 0 0 0 0 0 0 0 0 0 0 0 127 0" result="hardAlpha"/>
<feOffset dx="3" dy="4"/>
<feGaussianBlur stdDeviation="4.45"/>
<feComposite in2="hardAlpha" operator="out"/>
<feColorMatrix type="matrix" values="0 0 0 0 0 0 0 0 0 0.7 0 0 0 0 1 0 0 0 1 0"/>
<feBlend mode="normal" in2="BackgroundImageFix" result="effect1_dropShadow_496_18"/>
<feBlend mode="normal" in="SourceGraphic" in2="effect1_dropShadow_496_18" result="shape"/>
</filter>
</defs>
</svg>
