<svg width="350" height="39" viewBox="0 0 350 39" fill="none" xmlns="http://www.w3.org/2000/svg">
<g filter="url(#filter0_d_865_25)">
<path d="M17.8953 2L17.8153 2.4C14.6553 2.52 14.2153 4.24 13.4553 7.8L9.97531 24.2C9.09531 28.4 10.1353 29.4 15.4553 29.4C20.4553 29.4 22.2953 28.52 23.4153 26H23.8153L22.2153 30H2.09531L2.17531 29.6C5.33531 29.48 5.77531 27.76 6.53531 24.2L10.0153 7.8C10.7753 4.24 11.0553 2.52 7.97531 2.4L8.05531 2H17.8953ZM41.7147 15.16C42.3947 11.76 39.8347 10.04 37.5547 10.04C34.4347 10.04 30.7547 13.16 29.4747 17.88C31.3147 18.88 33.2347 19.4 35.1547 19.4C38.0347 19.4 40.9947 18.28 41.7147 15.16ZM34.0747 29.96C35.7947 29.96 38.2747 29.32 40.2747 28.32L41.3547 27.76L41.6347 28.16L40.1547 28.88C38.1547 29.84 35.6347 30.44 33.4747 30.44C27.1947 30.44 24.1547 26.44 25.5147 20C26.8747 13.68 32.2747 9.64 38.1147 9.64C42.4747 9.64 45.0747 11.88 44.3947 15.16C43.5547 19.08 39.3547 20.16 35.8747 20.16C33.7147 20.16 31.2347 19.76 29.2747 18.64C27.6347 26.4 29.3947 29.96 34.0747 29.96ZM45.8078 25.84L49.0478 10.4H46.1678L46.2478 10C49.7278 9.84 52.3678 7.8 53.1278 4.68H53.2878L52.1278 10H55.9678L55.8878 10.4H52.0478L48.9278 25C48.3678 27.56 48.4078 28.84 49.1278 28.84C49.8878 28.8 50.8878 27.56 51.6478 25.76H52.1678C50.7678 28.8 49.2078 30.4 47.5678 30.4C45.8878 30.4 45.2078 28.64 45.8078 25.84ZM67.0944 21.76L70.0544 7.8C70.8144 4.24 71.0944 2.52 68.0144 2.4L68.0944 2H77.9344L77.8544 2.4C74.6944 2.52 74.2544 4.24 73.4944 7.76L70.5744 21.6C69.4944 26.64 70.6944 29.8 75.8144 29.8C80.6144 29.8 84.7744 26.4 85.8144 21.56L88.7344 7.76C89.4944 4.24 89.7744 2.52 86.6944 2.4L86.7744 2H93.7344L93.6544 2.4C90.4944 2.52 90.0944 4.24 89.3344 7.8L86.5344 20.96C85.2944 26.84 81.1344 30.4 75.0944 30.4C69.3344 30.4 65.9344 27.2 67.0944 21.76ZM94.2775 30C96.8775 30 99.3175 28.4 99.7175 26.36C100.038 24.88 99.1575 23.56 96.3975 21C92.9575 18 91.9175 16.2 92.3575 14.16C92.9175 11.52 95.6775 9.6 99.3975 9.6C101.878 9.6 103.918 10.4 104.998 11.76L103.838 14.76H103.638C104.558 12.32 102.718 10 99.9175 10C97.3175 10 95.7975 11.44 95.4375 13.08C95.1175 14.52 95.8775 15.64 99.3975 18.96C102.318 21.76 103.158 23.48 102.718 25.4C102.118 28.28 98.7975 30.4 94.8775 30.4C92.0775 30.4 89.9975 29.32 88.5175 27.08L89.9975 23.36H90.1975C88.8375 26.88 90.7575 30 94.2775 30ZM128.937 30.4C120.177 30.4 115.257 24.56 117.017 16.2C118.817 7.8 126.577 1.52 135.217 1.52C138.297 1.52 141.217 2.36 142.977 3.8L142.537 7.92H142.137C142.217 4.2 139.737 2.12 135.217 2.12C128.377 2.12 122.697 7.6 120.977 15.68C119.177 24.12 122.697 29.8 129.657 29.8C132.937 29.8 134.737 28.56 135.297 25.88L136.097 22.08C137.097 17.4 136.777 16.76 132.537 16.76L132.617 16.36H142.697L142.617 16.76C141.017 16.88 140.337 18.08 139.497 22.16L137.977 29.2C136.857 29.24 135.777 29.48 134.577 29.72C132.977 30.04 131.137 30.4 128.937 30.4ZM144.698 24.76L146.698 15.32C147.258 12.76 147.338 11.16 146.618 11.16C145.738 11.2 144.658 12.44 143.898 14.24H143.378C144.818 11.12 146.418 9.6 148.258 9.6C150.058 9.6 150.618 11 149.938 14.16L148.098 22.88C147.098 27.6 147.898 30 150.498 30C153.858 30 157.658 25.96 158.818 21.2L161.178 9.96L164.138 10L161.018 25C160.458 27.56 160.458 28.84 161.178 28.84C161.938 28.8 162.978 27.56 163.738 25.76H164.258C162.778 28.88 161.218 30.4 159.338 30.4C157.698 30.4 157.178 29.24 157.658 26.88L158.258 23.96C156.738 27.56 153.938 30.4 149.978 30.4C146.418 30.4 144.018 27.92 144.698 24.76ZM170.984 4.92C170.784 6 171.304 6.72 172.344 6.72C173.344 6.72 174.224 6 174.424 4.92C174.664 3.8 174.104 3.08 173.104 3.08C172.064 3.08 171.224 3.8 170.984 4.92ZM166.544 26.88L169.104 15C169.624 12.44 169.624 11.16 168.904 11.16C168.144 11.2 167.144 12.44 166.384 14.24H165.864C167.304 11.12 168.864 9.6 170.784 9.6C172.384 9.6 172.944 10.76 172.424 13.12L169.904 25C169.344 27.56 169.384 28.84 170.064 28.84C170.864 28.8 171.864 27.56 172.624 25.76H173.144C171.704 28.88 170.104 30.4 168.264 30.4C166.624 30.4 166.064 29.24 166.544 26.88ZM181.68 30C184.56 30 187.08 26.4 188.36 20.56L189.68 14.32C190 12.56 189.6 11.32 188.6 10.6C188 10.2 187.2 10 186.2 10C182.36 10 179.24 14.24 178.4 21.16C177.8 26 178.6 30 181.68 30ZM187.08 26.36L187.28 25.6C185.4 29.24 183.92 30.4 181.12 30.4C175 30.4 174.24 24.96 175.32 19.92C176.64 13.48 181 9.6 186.16 9.6C187.96 9.6 189.24 10.08 190.36 11.2L191.6 5.32C192.16 2.76 192.12 2.4 188.88 2.36L188.96 1.96C190.96 1.92 193.12 1.24 195.32 -2.38419e-06H195.68L190.4 25C189.84 27.56 189.88 28.84 190.56 28.84C191.36 28.8 192.36 27.56 193.12 25.76H193.64C192.16 28.92 190.64 30.4 188.92 30.4C187.12 30.4 186.52 28.72 187.08 26.36ZM211.91 15.16C212.59 11.76 210.03 10.04 207.75 10.04C204.63 10.04 200.95 13.16 199.67 17.88C201.51 18.88 203.43 19.4 205.35 19.4C208.23 19.4 211.19 18.28 211.91 15.16ZM204.27 29.96C205.99 29.96 208.47 29.32 210.47 28.32L211.55 27.76L211.83 28.16L210.35 28.88C208.35 29.84 205.83 30.44 203.67 30.44C197.39 30.44 194.35 26.44 195.71 20C197.07 13.68 202.47 9.64 208.31 9.64C212.67 9.64 215.27 11.88 214.59 15.16C213.75 19.08 209.55 20.16 206.07 20.16C203.91 20.16 201.43 19.76 199.47 18.64C197.83 26.4 199.59 29.96 204.27 29.96ZM229.904 30L229.984 29.6C233.144 29.48 233.584 27.76 234.344 24.2L235.784 17.48L232.984 6.6C232.224 3.84 231.624 2.48 228.864 2.4L228.944 2H239.144L239.064 2.4C237.504 2.48 236.744 2.92 236.544 3.88C236.424 4.4 236.464 5.08 236.744 6.12L239.224 16L245.424 7.88C247.464 5.2 248.024 4.36 248.184 3.64C248.344 2.84 247.904 2.48 246.664 2.4L246.744 2H253.224L253.144 2.4C250.864 2.52 249.504 3.44 247.224 6.4L239.304 16.76L237.744 24.2C236.984 27.76 236.704 29.48 239.784 29.6L239.704 30H229.904ZM246.101 20C247.421 13.76 251.981 9.6 257.501 9.6C263.021 9.6 265.861 13.76 264.541 20C263.221 26.24 258.621 30.4 253.101 30.4C247.581 30.4 244.781 26.24 246.101 20ZM249.821 18.32C248.981 22.36 248.821 30 253.941 30C257.101 30 259.701 26.72 260.781 21.68C261.661 17.64 261.781 10 256.661 10C253.501 10 250.901 13.28 249.821 18.32ZM268.058 24.76L270.058 15.32C270.618 12.76 270.698 11.16 269.978 11.16C269.098 11.2 268.018 12.44 267.258 14.24H266.738C268.178 11.12 269.778 9.6 271.618 9.6C273.418 9.6 273.978 11 273.298 14.16L271.458 22.88C270.458 27.6 271.258 30 273.858 30C277.218 30 281.018 25.96 282.178 21.2L284.538 9.96L287.498 10L284.378 25C283.818 27.56 283.818 28.84 284.538 28.84C285.298 28.8 286.338 27.56 287.098 25.76H287.618C286.138 28.88 284.578 30.4 282.698 30.4C281.058 30.4 280.538 29.24 281.018 26.88L281.618 23.96C280.098 27.56 277.298 30.4 273.338 30.4C269.778 30.4 267.378 27.92 268.058 24.76ZM304.725 30L304.805 29.6C307.565 29.56 308.205 28.6 309.165 24.24L312.525 8.36C313.565 3.52 313.125 2.6 309.685 2.6C305.525 2.6 304.045 3.92 302.085 8.6H301.685L303.845 2H327.325L326.685 8.6H326.285C326.365 3.92 325.405 2.6 321.245 2.6C317.805 2.6 316.965 3.52 315.925 8.36L312.565 24.24C311.605 28.6 311.845 29.56 314.605 29.6L314.525 30H304.725ZM323.952 20C325.272 13.76 329.832 9.6 335.352 9.6C340.872 9.6 343.712 13.76 342.392 20C341.072 26.24 336.472 30.4 330.952 30.4C325.432 30.4 322.632 26.24 323.952 20ZM327.672 18.32C326.832 22.36 326.672 30 331.792 30C334.952 30 337.552 26.72 338.632 21.68C339.512 17.64 339.632 10 334.512 10C331.352 10 328.752 13.28 327.672 18.32Z" fill="#EBBC64"/>
</g>
<defs>
<filter id="filter0_d_865_25" x="0.0957031" y="0" width="349.616" height="38.44" filterUnits="userSpaceOnUse" color-interpolation-filters="sRGB">
<feFlood flood-opacity="0" result="BackgroundImageFix"/>
<feColorMatrix in="SourceAlpha" type="matrix" values="0 0 0 0 0 0 0 0 0 0 0 0 0 0 0 0 0 0 127 0" result="hardAlpha"/>
<feOffset dx="2" dy="4"/>
<feGaussianBlur stdDeviation="2"/>
<feComposite in2="hardAlpha" operator="out"/>
<feColorMatrix type="matrix" values="0 0 0 0 0 0 0 0 0 0 0 0 0 0 0 0 0 0 0.5 0"/>
<feBlend mode="normal" in2="BackgroundImageFix" result="effect1_dropShadow_865_25"/>
<feBlend mode="normal" in="SourceGraphic" in2="effect1_dropShadow_865_25" result="shape"/>
</filter>
</defs>
</svg>
