<svg width="587" height="190" viewBox="0 0 587 190" fill="none" xmlns="http://www.w3.org/2000/svg">
<g filter="url(#filter0_d_870_23)">
<path d="M14.6839 19.24C15.7879 19.384 16.4599 20.248 16.4599 21.544C16.4599 22.888 15.4519 23.848 13.9159 23.848C13.8199 23.848 11.3719 23.8 11.3719 20.632C11.3719 18.424 13.8679 15.976 15.4519 15.496L16.0759 16.6L15.8359 16.744C15.4999 16.888 15.2119 17.128 14.9719 17.32C14.6839 17.56 14.4439 17.8 14.2519 18.088C14.0119 18.376 13.6759 19 13.6759 19L13.5319 19.336L13.8679 19.288C13.9159 19.288 14.1079 19.24 14.3959 19.24C14.4919 19.24 14.5879 19.24 14.6839 19.24ZM21.2599 19.24C22.3639 19.384 23.0359 20.248 23.0359 21.544C23.0359 22.888 22.0279 23.848 20.4919 23.848C20.3959 23.848 17.9479 23.8 17.9479 20.632C17.9479 18.424 20.4439 15.976 22.0279 15.496L22.6519 16.6L22.4119 16.744C22.0759 16.936 21.7879 17.128 21.5479 17.32C21.2599 17.56 21.0199 17.8 20.8279 18.088C20.5879 18.376 20.2519 19 20.2519 19L20.1079 19.336L20.4439 19.288C20.4919 19.288 20.6839 19.24 20.9719 19.24C21.0679 19.24 21.1639 19.24 21.2599 19.24ZM66.9833 11.032H73.0313V11.704H71.2553L61.7033 43H58.5353L51.1433 20.968L43.5593 43H40.3913L31.4633 11.704H29.2073V11.032H38.0393V11.704H35.9753L43.2233 40.6L51.6713 13.864C51.7673 13.48 52.2953 13.48 52.4393 13.864L61.3673 40.6L68.9513 11.704H66.9833V11.032ZM101.367 38.728V37.576H102.039V43H81.1107H78.4227V42.328H81.1107V11.704H78.4227V11.032H81.1107H101.223V16.456H100.551V15.208C100.551 13.816 99.4947 12.664 98.1027 12.616L85.3827 11.944V25.72H95.1747C96.1827 25.72 97.0467 24.904 97.0467 23.848V22.696H97.7187V29.656H97.0467V28.792C97.0467 27.784 96.2787 26.968 95.2707 26.92L85.3827 26.488V42.088L98.9187 41.32C100.311 41.272 101.367 40.12 101.367 38.728ZM152.502 28.408C154.086 29.752 154.95 31.528 155.094 33.688V34.408C154.95 37.192 153.846 39.352 151.83 40.84C149.814 42.28 147.078 43 143.622 43H131.766H129.51V42.328H131.766V11.704H129.51V11.032H131.766H141.942C143.67 11.032 146.07 11.272 147.846 12.376C150.15 13.864 151.35 15.832 151.35 18.232V18.76C151.254 20.44 150.726 21.976 149.814 23.032C149.142 23.896 148.23 24.568 147.078 25.144L146.118 25.576L147.174 25.864C149.382 26.392 151.206 27.256 152.502 28.408ZM135.702 12.328V25.24H142.614C144.966 25.24 147.846 24.04 147.846 18.232C147.846 17.368 147.702 16.456 147.462 15.64C147.222 14.92 146.886 14.296 146.406 13.768C146.118 13.432 144.822 12.328 141.654 12.328H135.702ZM150.726 37.24C151.014 36.28 151.158 35.176 151.158 33.88C151.158 27.256 145.158 26.536 142.614 26.536H135.702V41.704H143.382C144.822 41.704 146.022 41.56 147.03 41.224C147.99 40.84 148.806 40.36 149.43 39.688C150.054 39.016 150.486 38.2 150.726 37.24ZM184.017 38.728V37.576H184.689V43H163.761H161.073V42.328H163.761V11.704H161.073V11.032H163.761H183.873V16.456H183.201V15.208C183.201 13.816 182.145 12.664 180.753 12.616L168.033 11.944V25.72H177.825C178.833 25.72 179.697 24.904 179.697 23.848V22.696H180.369V29.656H179.697V28.792C179.697 27.784 178.929 26.968 177.921 26.92L168.033 26.488V42.088L181.569 41.32C182.961 41.272 184.017 40.12 184.017 38.728ZM214.129 38.728V37.624H214.801V43L193.873 43.048V43H191.185V42.328H193.873V11.704H191.185V11.032H200.881V11.704H198.145V42.088L211.681 41.32C213.073 41.272 214.129 40.12 214.129 38.728ZM230.198 11.704H227.414V42.328H230.15V43H220.454V42.328H223.142V11.704H220.502V11.032H230.198V11.704ZM259.495 38.728V37.576H260.167V43H239.239H236.551V42.328H239.239V11.704H236.551V11.032H239.239H259.351V16.456H258.679V15.208C258.679 13.816 257.623 12.664 256.231 12.616L243.511 11.944V25.72H253.303C254.311 25.72 255.175 24.904 255.175 23.848V22.696H255.847V29.656H255.175V28.792C255.175 27.784 254.407 26.968 253.399 26.92L243.511 26.488V42.088L257.047 41.32C258.439 41.272 259.495 40.12 259.495 38.728ZM267.767 11.704H265.559V11.032H274.343V11.704H272.279L282.551 40.6L292.535 11.704H290.567V11.032H296.615V11.704H294.839L282.887 43H279.719L267.767 11.704ZM324.876 38.728V37.576H325.548V43H304.62H301.932V42.328H304.62V11.704H301.932V11.032H304.62H324.732V16.456H324.06V15.208C324.06 13.816 323.004 12.664 321.612 12.616L308.892 11.944V25.72H318.684C319.692 25.72 320.556 24.904 320.556 23.848V22.696H321.228V29.656H320.556V28.792C320.556 27.784 319.788 26.968 318.78 26.92L308.892 26.488V42.088L322.428 41.32C323.82 41.272 324.876 40.12 324.876 38.728ZM387.244 11.704H384.508V42.328H387.244V43H377.548V42.328H380.236V13.72L369.148 36.52L356.716 13.72L357.82 42.328H360.46V43H352.876V42.328H355.564V11.704H352.876V11.032H360.46L370.924 30.376L380.14 11.032H387.244V11.704ZM417.245 11.032H424.157V11.704H421.277V30.904C421.229 32.632 420.941 34.312 420.317 35.848C419.741 37.336 418.877 38.68 417.821 39.784C416.765 40.888 415.517 41.752 414.029 42.376C412.541 43 410.909 43.336 409.133 43.336C407.213 43.336 405.389 43.048 403.805 42.472C402.221 41.896 400.829 41.08 399.677 40.024C398.525 39.016 397.613 37.768 396.989 36.376C396.365 35.032 396.029 33.496 396.029 31.816V11.704H393.341V11.032H403.085V11.704H400.349V31.288C400.349 32.824 400.493 34.216 400.829 35.512C401.213 36.76 401.741 37.864 402.461 38.776C403.181 39.688 404.093 40.408 405.197 40.888C406.301 41.368 407.597 41.608 409.133 41.608C410.765 41.608 412.253 41.368 413.549 40.84C414.845 40.312 415.997 39.592 416.957 38.632C417.869 37.72 418.589 36.568 419.117 35.224C419.645 33.928 419.885 32.44 419.933 30.856V11.704H417.245V11.032ZM453.698 31.864C454.034 32.92 454.13 34.072 454.034 35.32C453.938 36.424 453.506 37.48 452.834 38.44C452.162 39.4 451.298 40.264 450.242 40.936C449.186 41.656 447.89 42.184 446.45 42.568C445.154 42.952 442.754 43.144 441.41 43.144C439.202 43.144 434.93 42.376 431.906 40.264V41.416H431.186V33.928H431.906V34.552C431.906 38.392 435.65 42.088 441.602 42.088C444.338 42.088 446.93 41.512 448.61 40.312C450.29 39.208 451.154 37.816 451.25 36.088C451.298 35.32 451.202 34.6 451.01 34.024C450.77 33.448 450.338 32.92 449.618 32.44C448.946 31.96 447.986 31.48 446.738 31C445.538 30.568 443.906 30.088 441.938 29.56C439.682 28.936 437.714 28.264 436.13 27.544C434.546 26.872 433.298 26.056 432.386 25.192C431.426 24.328 430.802 23.368 430.418 22.36C430.082 21.352 429.938 20.248 430.034 19.096C430.13 17.944 430.514 16.888 431.138 15.88C431.762 14.92 432.626 14.056 433.634 13.336C434.69 12.616 435.89 12.04 437.282 11.656C438.674 11.272 440.162 11.08 441.698 11.08C445.682 11.08 448.226 12.088 451.298 14.152V12.856H451.97V20.296H451.298V19.72C451.298 15.832 447.122 12.184 441.746 12.184C435.314 12.184 433.634 15.784 433.25 16.552C432.866 17.368 432.77 18.136 432.914 18.952C432.962 19.432 433.154 19.912 433.442 20.392C433.73 20.824 434.21 21.304 434.882 21.784C435.602 22.264 436.562 22.792 437.858 23.272C439.106 23.8 440.786 24.328 442.898 24.808C445.058 25.384 446.882 26.008 448.322 26.68C449.81 27.352 450.962 28.168 451.874 29.032C452.738 29.896 453.362 30.856 453.698 31.864ZM470.02 11.704H467.236V42.328H469.972V43H460.276V42.328H462.964V11.704H460.324V11.032H470.02V11.704ZM503.264 23.368H502.592V22.792C502.592 18.76 498.944 11.944 492.464 11.944C490.736 11.944 489.152 12.28 487.664 13.048C486.224 13.768 484.928 14.776 483.872 16.12C482.768 17.416 481.904 19 481.328 20.776C480.704 22.552 480.416 24.52 480.416 26.632C480.416 28.84 480.704 30.904 481.328 32.776C481.904 34.648 482.768 36.28 483.824 37.672C484.88 39.064 486.176 40.168 487.616 40.936C489.056 41.704 490.64 42.088 492.368 42.088C496.976 42.088 500.192 38.968 501.632 36.616L503.264 38.584C502.304 39.448 500.192 40.984 499.136 41.512C498.032 42.088 496.928 42.52 495.776 42.808C494.624 43.096 493.472 43.24 492.368 43.24C490.064 43.24 487.904 42.808 485.936 41.992C483.968 41.176 482.24 39.976 480.8 38.488C479.36 37 478.208 35.224 477.392 33.208C476.576 31.24 476.192 28.984 476.192 26.632C476.192 24.376 476.576 22.264 477.392 20.344C478.208 18.424 479.36 16.744 480.848 15.352C482.288 13.912 484.016 12.808 485.984 11.992C487.952 11.224 490.112 10.84 492.464 10.84C496.352 10.84 500.432 13.288 502.592 15.208V13.864H503.264V23.368ZM540.717 11.704H537.933V42.328H540.669V43H530.973V42.328H533.661V11.704H531.021V11.032H540.717V11.704ZM570.885 31.864C571.221 32.92 571.317 34.072 571.221 35.32C571.125 36.424 570.693 37.48 570.021 38.44C569.349 39.4 568.485 40.264 567.429 40.936C566.373 41.656 565.077 42.184 563.637 42.568C562.341 42.952 559.941 43.144 558.597 43.144C556.389 43.144 552.117 42.376 549.093 40.264V41.416H548.373V33.928H549.093V34.552C549.093 38.392 552.837 42.088 558.789 42.088C561.525 42.088 564.117 41.512 565.797 40.312C567.477 39.208 568.341 37.816 568.437 36.088C568.485 35.32 568.389 34.6 568.197 34.024C567.957 33.448 567.525 32.92 566.805 32.44C566.133 31.96 565.173 31.48 563.925 31C562.725 30.568 561.093 30.088 559.125 29.56C556.869 28.936 554.901 28.264 553.317 27.544C551.733 26.872 550.485 26.056 549.573 25.192C548.613 24.328 547.989 23.368 547.605 22.36C547.269 21.352 547.125 20.248 547.221 19.096C547.317 17.944 547.701 16.888 548.325 15.88C548.949 14.92 549.813 14.056 550.821 13.336C551.877 12.616 553.077 12.04 554.469 11.656C555.861 11.272 557.349 11.08 558.885 11.08C562.869 11.08 565.413 12.088 568.485 14.152V12.856H569.157V20.296H568.485V19.72C568.485 15.832 564.309 12.184 558.933 12.184C552.501 12.184 550.821 15.784 550.437 16.552C550.053 17.368 549.957 18.136 550.101 18.952C550.149 19.432 550.341 19.912 550.629 20.392C550.917 20.824 551.397 21.304 552.069 21.784C552.789 22.264 553.749 22.792 555.045 23.272C556.293 23.8 557.973 24.328 560.085 24.808C562.245 25.384 564.069 26.008 565.509 26.68C566.997 27.352 568.149 28.168 569.061 29.032C569.925 29.896 570.549 30.856 570.885 31.864ZM99.9055 66.032H122.705V71.456H122.033V70.208C122.033 68.816 120.977 67.664 119.585 67.616L106.865 66.944V80.72H116.657C117.665 80.72 118.529 79.904 118.529 78.848V77.696H119.201V84.656H118.529V83.792C118.529 82.784 117.761 81.968 116.753 81.92L106.865 81.488V97.328H109.601V98H99.9055V97.328H102.593V66.704H99.9055V66.032ZM149.701 97.04C147.829 97.856 145.813 98.288 143.605 98.288C141.397 98.288 139.333 97.856 137.461 97.04C135.589 96.224 133.957 95.12 132.565 93.632C131.221 92.192 130.117 90.464 129.349 88.496C128.581 86.528 128.197 84.32 128.197 82.016C128.197 79.712 128.581 77.504 129.349 75.536C130.117 73.568 131.221 71.84 132.565 70.4C133.957 68.96 135.589 67.808 137.461 66.944C139.333 66.128 141.397 65.696 143.605 65.696C145.813 65.696 147.829 66.128 149.701 66.944C151.573 67.808 153.205 68.96 154.549 70.4C155.893 71.84 156.997 73.568 157.765 75.536C158.533 77.504 158.965 79.712 158.965 82.016C158.965 84.32 158.533 86.528 157.765 88.496C156.997 90.464 155.941 92.192 154.549 93.632C153.205 95.072 151.573 96.224 149.701 97.04ZM143.605 66.8H143.413C141.685 66.8 140.149 67.184 138.805 67.904C137.413 68.672 136.213 69.728 135.253 71.072C134.293 72.416 133.573 74.048 133.045 75.92C132.565 77.744 132.325 79.808 132.325 82.016C132.325 84.128 132.565 86.144 133.045 87.968C133.573 89.792 134.293 91.424 135.253 92.768C136.213 94.112 137.413 95.168 138.805 95.984C140.197 96.752 141.829 97.184 143.605 97.184H143.797C145.573 97.184 147.109 96.8 148.501 96.08C149.893 95.36 151.093 94.256 152.053 92.912C153.013 91.568 153.733 89.936 154.165 88.112C154.645 86.24 154.885 84.176 154.789 82.016C154.741 79.856 154.453 77.792 153.925 75.968C153.397 74.096 152.629 72.512 151.669 71.168C150.757 69.824 149.557 68.72 148.213 67.952C146.869 67.184 145.333 66.8 143.605 66.8ZM195.194 97.328H196.298V98H189.77C186.074 98 182.906 88.208 178.058 84.752C177.242 84.8 176.378 84.848 175.466 84.848H172.154L172.106 97.328H174.842V98H165.098V97.328H167.834V66.704H165.194V66.032H176.81C185.882 66.032 190.154 69.536 190.154 75.44C190.154 78.56 188.762 82.112 183.338 83.84C187.85 88.64 191.258 97.328 195.194 97.328ZM175.178 83.552C179.882 83.552 186.122 82.688 186.122 75.44C186.122 69.488 180.65 67.376 175.946 67.328H172.154V83.552H175.178ZM245.315 93.728V92.576H245.987V98H225.059H222.371V97.328H225.059V66.704H222.371V66.032H225.059H245.171V71.456H244.499V70.208C244.499 68.816 243.443 67.664 242.051 67.616L229.331 66.944V80.72H239.123C240.131 80.72 240.995 79.904 240.995 78.848V77.696H241.667V84.656H240.995V83.792C240.995 82.784 240.227 81.968 239.219 81.92L229.331 81.488V97.088L242.867 96.32C244.259 96.272 245.315 95.12 245.315 93.728ZM253.588 66.704H251.38V66.032H260.164V66.704H258.1L268.372 95.6L278.356 66.704H276.388V66.032H282.436V66.704H280.66L268.708 98H265.54L253.588 66.704ZM310.696 93.728V92.576H311.368V98H290.44H287.752V97.328H290.44V66.704H287.752V66.032H290.44H310.552V71.456H309.88V70.208C309.88 68.816 308.824 67.664 307.432 67.616L294.712 66.944V80.72H304.504C305.512 80.72 306.376 79.904 306.376 78.848V77.696H307.048V84.656H306.376V83.792C306.376 82.784 305.608 81.968 304.6 81.92L294.712 81.488V97.088L308.248 96.32C309.64 96.272 310.696 95.12 310.696 93.728ZM347.913 97.328H349.017V98H342.489C338.793 98 335.625 88.208 330.777 84.752C329.961 84.8 329.097 84.848 328.185 84.848H324.873L324.825 97.328H327.561V98H317.817V97.328H320.553V66.704H317.913V66.032H329.529C338.601 66.032 342.873 69.536 342.873 75.44C342.873 78.56 341.481 82.112 336.057 83.84C340.569 88.64 343.977 97.328 347.913 97.328ZM327.897 83.552C332.601 83.552 338.841 82.688 338.841 75.44C338.841 69.488 333.369 67.376 328.665 67.328H324.873V83.552H327.897ZM369.961 66.032H376.009V66.704H373.561L364.537 83.696V97.328H367.273V98.048H357.577V97.328H360.265V83.696L351.241 66.704H348.841V66.032H358.537V66.704H356.377L364.249 82.016L372.121 66.704H369.961V66.032ZM399.601 97.04C397.729 97.856 395.713 98.288 393.505 98.288C391.297 98.288 389.233 97.856 387.361 97.04C385.489 96.224 383.857 95.12 382.465 93.632C381.121 92.192 380.017 90.464 379.249 88.496C378.481 86.528 378.097 84.32 378.097 82.016C378.097 79.712 378.481 77.504 379.249 75.536C380.017 73.568 381.121 71.84 382.465 70.4C383.857 68.96 385.489 67.808 387.361 66.944C389.233 66.128 391.297 65.696 393.505 65.696C395.713 65.696 397.729 66.128 399.601 66.944C401.473 67.808 403.105 68.96 404.449 70.4C405.793 71.84 406.897 73.568 407.665 75.536C408.433 77.504 408.865 79.712 408.865 82.016C408.865 84.32 408.433 86.528 407.665 88.496C406.897 90.464 405.841 92.192 404.449 93.632C403.105 95.072 401.473 96.224 399.601 97.04ZM393.505 66.8H393.313C391.585 66.8 390.049 67.184 388.705 67.904C387.313 68.672 386.113 69.728 385.153 71.072C384.193 72.416 383.473 74.048 382.945 75.92C382.465 77.744 382.225 79.808 382.225 82.016C382.225 84.128 382.465 86.144 382.945 87.968C383.473 89.792 384.193 91.424 385.153 92.768C386.113 94.112 387.313 95.168 388.705 95.984C390.097 96.752 391.729 97.184 393.505 97.184H393.697C395.473 97.184 397.009 96.8 398.401 96.08C399.793 95.36 400.993 94.256 401.953 92.912C402.913 91.568 403.633 89.936 404.065 88.112C404.545 86.24 404.785 84.176 404.689 82.016C404.641 79.856 404.353 77.792 403.825 75.968C403.297 74.096 402.529 72.512 401.569 71.168C400.657 69.824 399.457 68.72 398.113 67.952C396.769 67.184 395.233 66.8 393.505 66.8ZM436.118 66.032H443.75V66.704H441.062V98H439.958L419.126 73.568L419.99 97.328H422.63V98H415.046V97.328H417.734V66.704H415.046V66.032H419.222L439.67 90.32L438.806 66.704H436.118V66.032ZM472.978 93.728V92.576H473.65V98H452.722H450.034V97.328H452.722V66.704H450.034V66.032H452.722H472.834V71.456H472.162V70.208C472.162 68.816 471.106 67.664 469.714 67.616L456.994 66.944V80.72H466.786C467.794 80.72 468.658 79.904 468.658 78.848V77.696H469.33V84.656H468.658V83.792C468.658 82.784 467.89 81.968 466.882 81.92L456.994 81.488V97.088L470.53 96.32C471.922 96.272 472.978 95.12 472.978 93.728ZM483.602 93.104C483.698 93.104 486.386 93.152 486.386 96.656C486.386 99.104 483.65 101.84 481.922 102.32L481.202 101.072L481.49 100.928C481.826 100.736 482.162 100.544 482.45 100.304C482.738 100.016 482.978 99.776 483.266 99.488C483.458 99.152 483.842 98.48 483.842 98.432L483.986 98.096L483.65 98.192C483.65 98.192 483.41 98.24 483.122 98.24C482.978 98.24 482.882 98.192 482.786 98.192C481.538 98.048 480.818 97.088 480.818 95.648C480.818 94.16 481.922 93.104 483.602 93.104Z" fill="#FFD991"/>
</g>
<g filter="url(#filter1_d_870_23)">
<path d="M99.4144 138H97.7544V136.48C96.9544 137.58 95.6744 138.1 94.3544 138.1C91.4944 138.1 89.5344 136.06 89.5344 133.22C89.5344 130.38 91.4944 128.36 94.3544 128.36C95.6544 128.36 96.8944 128.84 97.6744 129.9V128.46H99.4144V138ZM94.4944 136.58C96.4344 136.58 97.6944 135.1 97.6944 133.22C97.6944 131.32 96.4544 129.88 94.4944 129.88C92.5544 129.88 91.2744 131.32 91.2744 133.22C91.2744 135.1 92.5544 136.58 94.4944 136.58ZM104.419 138H102.699V128.46H104.339V129.9C105.119 128.82 106.499 128.38 107.779 128.38C110.399 128.38 111.739 129.98 111.739 132.52V138H110.019V132.7C110.019 131 109.219 129.92 107.439 129.92C105.459 129.92 104.419 131.16 104.419 133.08V138ZM124.063 138H122.403V136.48C121.603 137.58 120.323 138.1 119.003 138.1C116.143 138.1 114.183 136.06 114.183 133.22C114.183 130.38 116.143 128.36 119.003 128.36C120.303 128.36 121.543 128.84 122.323 129.9V123.92H124.063V138ZM119.143 136.58C121.083 136.58 122.343 135.1 122.343 133.22C122.343 131.32 121.103 129.88 119.143 129.88C117.203 129.88 115.923 131.32 115.923 133.22C115.923 135.1 117.203 136.58 119.143 136.58ZM136.691 136.64C138.051 136.64 139.371 136.14 140.551 135.48L140.591 137.02C139.171 137.74 138.131 138.1 136.511 138.1C133.531 138.1 131.311 136.34 131.311 133.22C131.311 130.44 133.291 128.36 136.091 128.36C138.951 128.36 140.811 130.46 140.811 133.28C140.811 133.46 140.791 133.62 140.771 133.8H132.851C133.071 135.78 134.871 136.64 136.691 136.64ZM132.851 132.56H139.151C138.951 130.88 137.671 129.82 136.011 129.82C134.331 129.82 133.051 130.88 132.851 132.56ZM146.551 138H146.231L141.331 128.46H143.131L146.411 134.84L149.751 128.46H151.451L146.551 138ZM157.277 136.64C158.637 136.64 159.957 136.14 161.137 135.48L161.177 137.02C159.757 137.74 158.717 138.1 157.097 138.1C154.117 138.1 151.897 136.34 151.897 133.22C151.897 130.44 153.877 128.36 156.677 128.36C159.537 128.36 161.397 130.46 161.397 133.28C161.397 133.46 161.377 133.62 161.357 133.8H153.437C153.657 135.78 155.457 136.64 157.277 136.64ZM153.437 132.56H159.737C159.537 130.88 158.257 129.82 156.597 129.82C154.917 129.82 153.637 130.88 153.437 132.56ZM165.512 138H163.792V128.46H165.432V130.06C166.152 128.78 167.552 128.36 168.912 128.36V130.04C168.792 130.02 168.652 130.02 168.512 130.02C166.512 130.02 165.512 131.32 165.512 133.24V138ZM173.708 142.52H171.908L174.008 137.98L169.788 128.46H171.588L174.928 136.1L178.208 128.46H179.908L173.708 142.52ZM180.354 133.22C180.354 130.34 182.474 128.36 185.314 128.36C188.154 128.36 190.254 130.36 190.254 133.22C190.254 136.08 188.154 138.1 185.314 138.1C182.474 138.1 180.354 136.08 180.354 133.22ZM185.314 136.58C187.274 136.58 188.514 135.12 188.514 133.22C188.514 131.32 187.274 129.88 185.314 129.88C183.374 129.88 182.094 131.32 182.094 133.22C182.094 135.1 183.374 136.58 185.314 136.58ZM194.399 138H192.679V128.46H194.319V129.9C195.099 128.82 196.479 128.38 197.759 128.38C200.379 128.38 201.719 129.98 201.719 132.52V138H199.999V132.7C199.999 131 199.199 129.92 197.419 129.92C195.439 129.92 194.399 131.16 194.399 133.08V138ZM209.503 136.64C210.863 136.64 212.183 136.14 213.363 135.48L213.403 137.02C211.983 137.74 210.943 138.1 209.323 138.1C206.343 138.1 204.123 136.34 204.123 133.22C204.123 130.44 206.103 128.36 208.903 128.36C211.763 128.36 213.623 130.46 213.623 133.28C213.623 133.46 213.603 133.62 213.583 133.8H205.663C205.883 135.78 207.683 136.64 209.503 136.64ZM205.663 132.56H211.963C211.763 130.88 210.483 129.82 208.823 129.82C207.143 129.82 205.863 130.88 205.663 132.56ZM222.583 138H220.863V123.94H222.583V129.82C223.403 128.8 224.683 128.38 225.943 128.38C228.563 128.38 229.903 129.98 229.903 132.52V138H228.183V132.7C228.183 131 227.383 129.92 225.603 129.92C223.623 129.92 222.583 131.16 222.583 133.08V138ZM242.168 138H240.508V136.48C239.708 137.58 238.428 138.1 237.108 138.1C234.248 138.1 232.288 136.06 232.288 133.22C232.288 130.38 234.248 128.36 237.108 128.36C238.408 128.36 239.648 128.84 240.428 129.9V128.46H242.168V138ZM237.248 136.58C239.188 136.58 240.448 135.1 240.448 133.22C240.448 131.32 239.208 129.88 237.248 129.88C235.308 129.88 234.028 131.32 234.028 133.22C234.028 135.1 235.308 136.58 237.248 136.58ZM244.613 136.98V135.34C245.653 136.3 246.973 136.76 248.373 136.76C249.393 136.76 250.573 136.52 250.573 135.28C250.573 133.14 244.553 135 244.553 131.22C244.553 129.18 246.353 128.36 248.153 128.36C249.153 128.36 250.473 128.62 251.293 129.2V130.64C250.333 130.2 249.293 129.84 248.213 129.84C247.373 129.84 246.253 130.1 246.253 131.16C246.253 133.42 252.293 131.56 252.293 135.26C252.293 137.42 250.073 138.1 248.293 138.1C247.033 138.1 245.593 137.78 244.613 136.98ZM262.934 136.64V138.1C260.954 138.1 259.794 137.84 259.794 135.84V129.88H258.174V128.46H259.794V125.4H261.514V128.46H263.374V129.88H261.514V135.76C261.514 136.64 261.954 136.64 262.934 136.64ZM268.286 138H266.566V123.94H268.286V129.82C269.106 128.8 270.386 128.38 271.646 128.38C274.266 128.38 275.606 129.98 275.606 132.52V138H273.886V132.7C273.886 131 273.086 129.92 271.306 129.92C269.326 129.92 268.286 131.16 268.286 133.08V138ZM283.39 136.64C284.75 136.64 286.07 136.14 287.25 135.48L287.29 137.02C285.87 137.74 284.83 138.1 283.21 138.1C280.23 138.1 278.01 136.34 278.01 133.22C278.01 130.44 279.99 128.36 282.79 128.36C285.65 128.36 287.51 130.46 287.51 133.28C287.51 133.46 287.49 133.62 287.47 133.8H279.55C279.77 135.78 281.57 136.64 283.39 136.64ZM279.55 132.56H285.85C285.65 130.88 284.37 129.82 282.71 129.82C281.03 129.82 279.75 130.88 279.55 132.56ZM302.289 135.78V137.36C301.329 137.88 300.449 138.1 299.369 138.1C296.489 138.1 293.869 136.32 293.869 133.22C293.869 130.04 296.569 128.36 299.489 128.36C300.209 128.36 301.749 128.64 302.289 129.14V130.84C301.349 130.08 300.449 129.88 299.289 129.88C297.289 129.88 295.609 131.12 295.609 133.22C295.609 135.34 297.269 136.58 299.289 136.58C300.449 136.58 301.269 136.32 302.289 135.78ZM306.606 138H304.886V123.94H306.606V129.82C307.426 128.8 308.706 128.38 309.966 128.38C312.586 128.38 313.926 129.98 313.926 132.52V138H312.206V132.7C312.206 131 311.406 129.92 309.626 129.92C307.646 129.92 306.606 131.16 306.606 133.08V138ZM326.192 138H324.532V136.48C323.732 137.58 322.452 138.1 321.132 138.1C318.272 138.1 316.312 136.06 316.312 133.22C316.312 130.38 318.272 128.36 321.132 128.36C322.432 128.36 323.672 128.84 324.452 129.9V128.46H326.192V138ZM321.272 136.58C323.212 136.58 324.472 135.1 324.472 133.22C324.472 131.32 323.232 129.88 321.272 129.88C319.332 129.88 318.052 131.32 318.052 133.22C318.052 135.1 319.332 136.58 321.272 136.58ZM331.196 138H329.476V128.46H331.116V129.9C331.896 128.82 333.276 128.38 334.556 128.38C337.176 128.38 338.516 129.98 338.516 132.52V138H336.796V132.7C336.796 131 335.996 129.92 334.216 129.92C332.236 129.92 331.196 131.16 331.196 133.08V138ZM349.34 135.78V137.36C348.38 137.88 347.5 138.1 346.42 138.1C343.54 138.1 340.92 136.32 340.92 133.22C340.92 130.04 343.62 128.36 346.54 128.36C347.26 128.36 348.8 128.64 349.34 129.14V130.84C348.4 130.08 347.5 129.88 346.34 129.88C344.34 129.88 342.66 131.12 342.66 133.22C342.66 135.34 344.32 136.58 346.34 136.58C347.5 136.58 348.32 136.32 349.34 135.78ZM356.417 136.64C357.777 136.64 359.097 136.14 360.277 135.48L360.317 137.02C358.897 137.74 357.857 138.1 356.237 138.1C353.257 138.1 351.037 136.34 351.037 133.22C351.037 130.44 353.017 128.36 355.817 128.36C358.677 128.36 360.537 130.46 360.537 133.28C360.537 133.46 360.517 133.62 360.497 133.8H352.577C352.797 135.78 354.597 136.64 356.417 136.64ZM352.577 132.56H358.877C358.677 130.88 357.397 129.82 355.737 129.82C354.057 129.82 352.777 130.88 352.577 132.56ZM371.157 136.64V138.1C369.177 138.1 368.017 137.84 368.017 135.84V129.88H366.397V128.46H368.017V125.4H369.737V128.46H371.597V129.88H369.737V135.76C369.737 136.64 370.177 136.64 371.157 136.64ZM373.557 133.22C373.557 130.34 375.677 128.36 378.517 128.36C381.357 128.36 383.457 130.36 383.457 133.22C383.457 136.08 381.357 138.1 378.517 138.1C375.677 138.1 373.557 136.08 373.557 133.22ZM378.517 136.58C380.477 136.58 381.717 135.12 381.717 133.22C381.717 131.32 380.477 129.88 378.517 129.88C376.577 129.88 375.297 131.32 375.297 133.22C375.297 135.1 376.577 136.58 378.517 136.58ZM399.766 138H398.106V136.48C397.306 137.58 396.026 138.1 394.706 138.1C391.846 138.1 389.886 136.06 389.886 133.22C389.886 130.38 391.846 128.36 394.706 128.36C396.006 128.36 397.246 128.84 398.026 129.9V123.92H399.766V138ZM394.846 136.58C396.786 136.58 398.046 135.1 398.046 133.22C398.046 131.32 396.806 129.88 394.846 129.88C392.906 129.88 391.626 131.32 391.626 133.22C391.626 135.1 392.906 136.58 394.846 136.58ZM407.55 136.64C408.91 136.64 410.23 136.14 411.41 135.48L411.45 137.02C410.03 137.74 408.99 138.1 407.37 138.1C404.39 138.1 402.17 136.34 402.17 133.22C402.17 130.44 404.15 128.36 406.95 128.36C409.81 128.36 411.67 130.46 411.67 133.28C411.67 133.46 411.65 133.62 411.63 133.8H403.71C403.93 135.78 405.73 136.64 407.55 136.64ZM403.71 132.56H410.01C409.81 130.88 408.53 129.82 406.87 129.82C405.19 129.82 403.91 130.88 403.71 132.56ZM417.086 136.64V138.1C415.086 138.1 413.946 137.1 413.946 135.08V123.92H415.686V135.02C415.686 135.9 416.106 136.64 417.086 136.64ZM418.824 126.32C418.824 125.66 419.344 125.18 419.984 125.18C420.624 125.18 421.164 125.62 421.164 126.28C421.164 126.94 420.644 127.42 419.984 127.42C419.344 127.42 418.824 126.98 418.824 126.32ZM420.864 138H419.124V128.46H420.864V138ZM427.684 138H427.364L422.464 128.46H424.264L427.544 134.84L430.884 128.46H432.584L427.684 138ZM438.41 136.64C439.77 136.64 441.09 136.14 442.27 135.48L442.31 137.02C440.89 137.74 439.85 138.1 438.23 138.1C435.25 138.1 433.03 136.34 433.03 133.22C433.03 130.44 435.01 128.36 437.81 128.36C440.67 128.36 442.53 130.46 442.53 133.28C442.53 133.46 442.51 133.62 442.49 133.8H434.57C434.79 135.78 436.59 136.64 438.41 136.64ZM434.57 132.56H440.87C440.67 130.88 439.39 129.82 437.73 129.82C436.05 129.82 434.77 130.88 434.57 132.56ZM446.645 138H444.925V128.46H446.565V130.06C447.285 128.78 448.685 128.36 450.045 128.36V130.04C449.925 130.02 449.785 130.02 449.645 130.02C447.645 130.02 446.645 131.32 446.645 133.24V138ZM460.532 136.64V138.1C458.552 138.1 457.392 137.84 457.392 135.84V129.88H455.772V128.46H457.392V125.4H459.112V128.46H460.972V129.88H459.112V135.76C459.112 136.64 459.552 136.64 460.532 136.64ZM465.883 138H464.163V123.94H465.883V129.82C466.703 128.8 467.983 128.38 469.243 128.38C471.863 128.38 473.203 129.98 473.203 132.52V138H471.483V132.7C471.483 131 470.683 129.92 468.903 129.92C466.923 129.92 465.883 131.16 465.883 133.08V138ZM480.988 136.64C482.348 136.64 483.668 136.14 484.848 135.48L484.888 137.02C483.468 137.74 482.428 138.1 480.808 138.1C477.828 138.1 475.608 136.34 475.608 133.22C475.608 130.44 477.588 128.36 480.388 128.36C483.248 128.36 485.108 130.46 485.108 133.28C485.108 133.46 485.088 133.62 485.068 133.8H477.148C477.368 135.78 479.168 136.64 480.988 136.64ZM477.148 132.56H483.448C483.248 130.88 481.968 129.82 480.308 129.82C478.628 129.82 477.348 130.88 477.148 132.56ZM487.203 126.32C487.203 125.66 487.723 125.18 488.363 125.18C489.003 125.18 489.543 125.62 489.543 126.28C489.543 126.94 489.023 127.42 488.363 127.42C487.723 127.42 487.203 126.98 487.203 126.32ZM489.243 138H487.503V128.46H489.243V138ZM494.243 138H492.523V128.46H494.163V130.06C494.883 128.78 496.283 128.36 497.643 128.36V130.04C497.523 130.02 497.383 130.02 497.243 130.02C495.243 130.02 494.243 131.32 494.243 133.24V138ZM128.706 170.2H126.986V156.44H128.646V157.96C129.446 156.86 130.706 156.36 132.046 156.36C134.906 156.36 136.866 158.38 136.866 161.22C136.866 164.06 134.906 166.1 132.046 166.1C130.726 166.1 129.526 165.6 128.706 164.54V170.2ZM131.906 164.58C133.846 164.58 135.126 163.1 135.126 161.22C135.126 159.32 133.846 157.88 131.906 157.88C129.966 157.88 128.686 159.36 128.686 161.22C128.686 163.1 129.946 164.58 131.906 164.58ZM143.81 164.64C145.17 164.64 146.49 164.14 147.67 163.48L147.71 165.02C146.29 165.74 145.25 166.1 143.63 166.1C140.65 166.1 138.43 164.34 138.43 161.22C138.43 158.44 140.41 156.36 143.21 156.36C146.07 156.36 147.93 158.46 147.93 161.28C147.93 161.46 147.91 161.62 147.89 161.8H139.97C140.19 163.78 141.99 164.64 143.81 164.64ZM139.97 160.56H146.27C146.07 158.88 144.79 157.82 143.13 157.82C141.45 157.82 140.17 158.88 139.97 160.56ZM152.046 166H150.326V156.46H151.966V158.06C152.686 156.78 154.086 156.36 155.446 156.36V158.04C155.326 158.02 155.186 158.02 155.046 158.02C153.046 158.02 152.046 159.32 152.046 161.24V166ZM157.948 166V157.88H156.328V156.46H157.968V153.7C157.968 152.12 158.808 150.88 161.088 150.88C161.548 150.88 161.988 150.96 162.408 151.1V152.68C162.048 152.42 161.628 152.3 161.188 152.3C160.088 152.3 159.628 152.94 159.628 153.98V156.46H162.408V157.88H159.668V166H157.948ZM163.039 161.22C163.039 158.34 165.159 156.36 167.999 156.36C170.839 156.36 172.939 158.36 172.939 161.22C172.939 164.08 170.839 166.1 167.999 166.1C165.159 166.1 163.039 164.08 163.039 161.22ZM167.999 164.58C169.959 164.58 171.199 163.12 171.199 161.22C171.199 159.32 169.959 157.88 167.999 157.88C166.059 157.88 164.779 159.32 164.779 161.22C164.779 163.1 166.059 164.58 167.999 164.58ZM177.085 166H175.365V156.46H177.005V158.06C177.725 156.78 179.125 156.36 180.485 156.36V158.04C180.365 158.02 180.225 158.02 180.085 158.02C178.085 158.02 177.085 159.32 177.085 161.24V166ZM184.331 166H182.611V156.46H184.271V157.88C185.011 156.8 186.271 156.38 187.571 156.38C188.911 156.38 190.211 156.9 190.871 158.14C191.671 156.92 193.111 156.38 194.531 156.38C197.151 156.38 198.431 158 198.431 160.52V166H196.711V160.7C196.711 159.08 196.011 157.92 194.251 157.92C192.311 157.92 191.391 159.26 191.391 161.08V166H189.671V160.7C189.671 159.08 188.971 157.92 187.191 157.92C185.251 157.92 184.331 159.26 184.331 161.08V166ZM210.674 166H209.014V164.48C208.214 165.58 206.934 166.1 205.614 166.1C202.754 166.1 200.794 164.06 200.794 161.22C200.794 158.38 202.754 156.36 205.614 156.36C206.914 156.36 208.154 156.84 208.934 157.9V156.46H210.674V166ZM205.754 164.58C207.694 164.58 208.954 163.1 208.954 161.22C208.954 159.32 207.714 157.88 205.754 157.88C203.814 157.88 202.534 159.32 202.534 161.22C202.534 163.1 203.814 164.58 205.754 164.58ZM215.678 166H213.958V156.46H215.598V157.9C216.378 156.82 217.758 156.38 219.038 156.38C221.658 156.38 222.998 157.98 222.998 160.52V166H221.278V160.7C221.278 159 220.478 157.92 218.698 157.92C216.718 157.92 215.678 159.16 215.678 161.08V166ZM233.823 163.78V165.36C232.863 165.88 231.983 166.1 230.903 166.1C228.023 166.1 225.403 164.32 225.403 161.22C225.403 158.04 228.103 156.36 231.023 156.36C231.743 156.36 233.283 156.64 233.823 157.14V158.84C232.883 158.08 231.983 157.88 230.823 157.88C228.823 157.88 227.143 159.12 227.143 161.22C227.143 163.34 228.803 164.58 230.823 164.58C231.983 164.58 232.803 164.32 233.823 163.78ZM240.9 164.64C242.26 164.64 243.58 164.14 244.76 163.48L244.8 165.02C243.38 165.74 242.34 166.1 240.72 166.1C237.74 166.1 235.52 164.34 235.52 161.22C235.52 158.44 237.5 156.36 240.3 156.36C243.16 156.36 245.02 158.46 245.02 161.28C245.02 161.46 245 161.62 244.98 161.8H237.06C237.28 163.78 239.08 164.64 240.9 164.64ZM237.06 160.56H243.36C243.16 158.88 241.88 157.82 240.22 157.82C238.54 157.82 237.26 158.88 237.06 160.56ZM261.299 166H259.639V164.48C258.839 165.58 257.559 166.1 256.239 166.1C253.379 166.1 251.419 164.06 251.419 161.22C251.419 158.38 253.379 156.36 256.239 156.36C257.539 156.36 258.779 156.84 259.559 157.9V156.46H261.299V166ZM256.379 164.58C258.319 164.58 259.579 163.1 259.579 161.22C259.579 159.32 258.339 157.88 256.379 157.88C254.439 157.88 253.159 159.32 253.159 161.22C253.159 163.1 254.439 164.58 256.379 164.58ZM272.182 163.78V165.36C271.222 165.88 270.342 166.1 269.262 166.1C266.382 166.1 263.762 164.32 263.762 161.22C263.762 158.04 266.462 156.36 269.382 156.36C270.102 156.36 271.642 156.64 272.182 157.14V158.84C271.242 158.08 270.342 157.88 269.182 157.88C267.182 157.88 265.502 159.12 265.502 161.22C265.502 163.34 267.162 164.58 269.182 164.58C270.342 164.58 271.162 164.32 272.182 163.78ZM276.635 166H274.915V156.46H276.555V158.06C277.275 156.78 278.675 156.36 280.035 156.36V158.04C279.915 158.02 279.775 158.02 279.635 158.02C277.635 158.02 276.635 159.32 276.635 161.24V166ZM281.184 161.22C281.184 158.34 283.304 156.36 286.144 156.36C288.984 156.36 291.084 158.36 291.084 161.22C291.084 164.08 288.984 166.1 286.144 166.1C283.304 166.1 281.184 164.08 281.184 161.22ZM286.144 164.58C288.104 164.58 289.344 163.12 289.344 161.22C289.344 159.32 288.104 157.88 286.144 157.88C284.204 157.88 282.924 159.32 282.924 161.22C282.924 163.1 284.204 164.58 286.144 164.58ZM292.669 164.98V163.34C293.709 164.3 295.029 164.76 296.429 164.76C297.449 164.76 298.629 164.52 298.629 163.28C298.629 161.14 292.609 163 292.609 159.22C292.609 157.18 294.409 156.36 296.209 156.36C297.209 156.36 298.529 156.62 299.349 157.2V158.64C298.389 158.2 297.349 157.84 296.269 157.84C295.429 157.84 294.309 158.1 294.309 159.16C294.309 161.42 300.349 159.56 300.349 163.26C300.349 165.42 298.129 166.1 296.349 166.1C295.089 166.1 293.649 165.78 292.669 164.98ZM301.927 164.98V163.34C302.967 164.3 304.287 164.76 305.687 164.76C306.707 164.76 307.887 164.52 307.887 163.28C307.887 161.14 301.867 163 301.867 159.22C301.867 157.18 303.667 156.36 305.467 156.36C306.467 156.36 307.787 156.62 308.607 157.2V158.64C307.647 158.2 306.607 157.84 305.527 157.84C304.687 157.84 303.567 158.1 303.567 159.16C303.567 161.42 309.607 159.56 309.607 163.26C309.607 165.42 307.387 166.1 305.607 166.1C304.347 166.1 302.907 165.78 301.927 164.98ZM320.409 166H320.089L315.189 156.46H316.989L320.269 162.84L323.609 156.46H325.309L320.409 166ZM335.635 166H333.975V164.48C333.175 165.58 331.895 166.1 330.575 166.1C327.715 166.1 325.755 164.06 325.755 161.22C325.755 158.38 327.715 156.36 330.575 156.36C331.875 156.36 333.115 156.84 333.895 157.9V156.46H335.635V166ZM330.715 164.58C332.655 164.58 333.915 163.1 333.915 161.22C333.915 159.32 332.675 157.88 330.715 157.88C328.775 157.88 327.495 159.32 327.495 161.22C327.495 163.1 328.775 164.58 330.715 164.58ZM340.639 166H338.919V156.46H340.559V158.06C341.279 156.78 342.679 156.36 344.039 156.36V158.04C343.919 158.02 343.779 158.02 343.639 158.02C341.639 158.02 340.639 159.32 340.639 161.24V166ZM345.865 154.32C345.865 153.66 346.385 153.18 347.025 153.18C347.665 153.18 348.205 153.62 348.205 154.28C348.205 154.94 347.685 155.42 347.025 155.42C346.385 155.42 345.865 154.98 345.865 154.32ZM347.905 166H346.165V156.46H347.905V166ZM350.305 161.22C350.305 158.34 352.425 156.36 355.265 156.36C358.105 156.36 360.205 158.36 360.205 161.22C360.205 164.08 358.105 166.1 355.265 166.1C352.425 166.1 350.305 164.08 350.305 161.22ZM355.265 164.58C357.225 164.58 358.465 163.12 358.465 161.22C358.465 159.32 357.225 157.88 355.265 157.88C353.325 157.88 352.045 159.32 352.045 161.22C352.045 163.1 353.325 164.58 355.265 164.58ZM371.53 166H369.89V164.56C369.15 165.6 367.89 166.1 366.63 166.1C363.97 166.1 362.53 164.58 362.53 161.94V156.46H364.25V161.76C364.25 163.44 365.05 164.56 366.83 164.56C368.81 164.56 369.79 163.26 369.79 161.4V156.46H371.53V166ZM373.978 164.98V163.34C375.018 164.3 376.338 164.76 377.738 164.76C378.758 164.76 379.938 164.52 379.938 163.28C379.938 161.14 373.918 163 373.918 159.22C373.918 157.18 375.718 156.36 377.518 156.36C378.518 156.36 379.838 156.62 380.658 157.2V158.64C379.698 158.2 378.658 157.84 377.578 157.84C376.738 157.84 375.618 158.1 375.618 159.16C375.618 161.42 381.658 159.56 381.658 163.26C381.658 165.42 379.438 166.1 377.658 166.1C376.398 166.1 374.958 165.78 373.978 164.98ZM388.599 168.74V166.84C389.659 167.72 391.319 168.08 392.659 168.08C394.779 168.08 396.359 167.66 396.359 165.24C396.359 165.22 396.359 164.14 396.359 164.12C395.519 165.14 394.239 165.6 392.919 165.6C390.199 165.6 388.079 163.76 388.079 160.98C388.079 158.18 390.199 156.36 392.919 156.36C394.259 156.36 395.619 156.84 396.439 157.92V156.46H398.079V165.06C398.079 168.78 395.799 169.6 392.519 169.6C391.319 169.6 389.639 169.36 388.599 168.74ZM393.119 164.08C394.959 164.08 396.379 162.86 396.379 160.98C396.379 159.04 394.979 157.88 393.119 157.88C391.239 157.88 389.819 159.04 389.819 160.98C389.819 162.88 391.279 164.08 393.119 164.08ZM405.88 164.64C407.24 164.64 408.56 164.14 409.74 163.48L409.78 165.02C408.36 165.74 407.32 166.1 405.7 166.1C402.72 166.1 400.5 164.34 400.5 161.22C400.5 158.44 402.48 156.36 405.28 156.36C408.14 156.36 410 158.46 410 161.28C410 161.46 409.98 161.62 409.96 161.8H402.04C402.26 163.78 404.06 164.64 405.88 164.64ZM402.04 160.56H408.34C408.14 158.88 406.86 157.82 405.2 157.82C403.52 157.82 402.24 158.88 402.04 160.56ZM414.116 166H412.396V156.46H414.036V157.9C414.816 156.82 416.196 156.38 417.476 156.38C420.096 156.38 421.436 157.98 421.436 160.52V166H419.716V160.7C419.716 159 418.916 157.92 417.136 157.92C415.156 157.92 414.116 159.16 414.116 161.08V166ZM426.381 166H424.661V156.46H426.301V158.06C427.021 156.78 428.421 156.36 429.781 156.36V158.04C429.661 158.02 429.521 158.02 429.381 158.02C427.381 158.02 426.381 159.32 426.381 161.24V166ZM436.31 164.64C437.67 164.64 438.99 164.14 440.17 163.48L440.21 165.02C438.79 165.74 437.75 166.1 436.13 166.1C433.15 166.1 430.93 164.34 430.93 161.22C430.93 158.44 432.91 156.36 435.71 156.36C438.57 156.36 440.43 158.46 440.43 161.28C440.43 161.46 440.41 161.62 440.39 161.8H432.47C432.69 163.78 434.49 164.64 436.31 164.64ZM432.47 160.56H438.77C438.57 158.88 437.29 157.82 435.63 157.82C433.95 157.82 432.67 158.88 432.47 160.56ZM441.986 164.98V163.34C443.026 164.3 444.346 164.76 445.746 164.76C446.766 164.76 447.946 164.52 447.946 163.28C447.946 161.14 441.926 163 441.926 159.22C441.926 157.18 443.726 156.36 445.526 156.36C446.526 156.36 447.846 156.62 448.666 157.2V158.64C447.706 158.2 446.666 157.84 445.586 157.84C444.746 157.84 443.626 158.1 443.626 159.16C443.626 161.42 449.666 159.56 449.666 163.26C449.666 165.42 447.446 166.1 445.666 166.1C444.406 166.1 442.966 165.78 441.986 164.98ZM451.263 164.86C451.263 164.18 451.803 163.64 452.503 163.64C453.203 163.64 453.683 164.18 453.683 164.86C453.683 165.54 453.203 166.1 452.503 166.1C451.783 166.1 451.263 165.56 451.263 164.86ZM456.414 156.4L455.834 156.26L456.334 154.86C455.694 154.86 454.794 154.64 454.794 153.76C454.794 153.06 455.294 152.54 456.034 152.54C456.814 152.54 457.314 153.18 457.214 153.9C457.074 154.72 456.574 155.9 456.414 156.4ZM459.814 156.4L459.234 156.26L459.734 154.86C459.094 154.86 458.194 154.64 458.194 153.76C458.194 153.06 458.694 152.54 459.434 152.54C460.214 152.54 460.714 153.18 460.614 153.9C460.474 154.72 459.974 155.9 459.814 156.4Z" fill="white"/>
</g>
<defs>
<filter id="filter0_d_870_23" x="2.37207" y="4.84003" width="577.945" height="109.48" filterUnits="userSpaceOnUse" color-interpolation-filters="sRGB">
<feFlood flood-opacity="0" result="BackgroundImageFix"/>
<feColorMatrix in="SourceAlpha" type="matrix" values="0 0 0 0 0 0 0 0 0 0 0 0 0 0 0 0 0 0 127 0" result="hardAlpha"/>
<feOffset dy="3"/>
<feGaussianBlur stdDeviation="4.5"/>
<feComposite in2="hardAlpha" operator="out"/>
<feColorMatrix type="matrix" values="0 0 0 0 0 0 0 0 0 0 0 0 0 0 0 0 0 0 0.85 0"/>
<feBlend mode="normal" in2="BackgroundImageFix" result="effect1_dropShadow_870_23"/>
<feBlend mode="normal" in="SourceGraphic" in2="effect1_dropShadow_870_23" result="shape"/>
</filter>
<filter id="filter1_d_870_23" x="80.5342" y="117.92" width="426.108" height="64.28" filterUnits="userSpaceOnUse" color-interpolation-filters="sRGB">
<feFlood flood-opacity="0" result="BackgroundImageFix"/>
<feColorMatrix in="SourceAlpha" type="matrix" values="0 0 0 0 0 0 0 0 0 0 0 0 0 0 0 0 0 0 127 0" result="hardAlpha"/>
<feOffset dy="3"/>
<feGaussianBlur stdDeviation="4.5"/>
<feComposite in2="hardAlpha" operator="out"/>
<feColorMatrix type="matrix" values="0 0 0 0 0 0 0 0 0 0 0 0 0 0 0 0 0 0 0.85 0"/>
<feBlend mode="normal" in2="BackgroundImageFix" result="effect1_dropShadow_870_23"/>
<feBlend mode="normal" in="SourceGraphic" in2="effect1_dropShadow_870_23" result="shape"/>
</filter>
</defs>
</svg>
