<svg width="572" height="323" viewBox="0 0 572 323" fill="none" xmlns="http://www.w3.org/2000/svg">
<path d="M178.272 23.408H172.8V84.656H178.272V86H158.88V84.656H164.256V27.44L142.08 73.04L117.216 27.44L119.424 84.656H124.704V86H109.536V84.656H114.912V23.408H109.536V22.064H124.704L145.632 60.752L164.064 22.064H178.272V23.408ZM233.474 22.064H247.298V23.408H241.538V61.808C241.442 65.264 240.866 68.624 239.618 71.696C238.466 74.672 236.738 77.36 234.626 79.568C232.514 81.776 230.018 83.504 227.042 84.752C224.066 86 220.802 86.672 217.25 86.672C213.41 86.672 209.762 86.096 206.594 84.944C203.426 83.792 200.642 82.16 198.338 80.048C196.034 78.032 194.21 75.536 192.962 72.752C191.714 70.064 191.042 66.992 191.042 63.632V23.408H185.666V22.064H205.154V23.408H199.682V62.576C199.682 65.648 199.97 68.432 200.642 71.024C201.41 73.52 202.466 75.728 203.906 77.552C205.346 79.376 207.17 80.816 209.378 81.776C211.586 82.736 214.178 83.216 217.25 83.216C220.514 83.216 223.49 82.736 226.082 81.68C228.674 80.624 230.978 79.184 232.898 77.264C234.722 75.44 236.162 73.136 237.218 70.448C238.274 67.856 238.754 64.88 238.85 61.712V23.408H233.474V22.064ZM301.58 63.728C302.252 65.84 302.444 68.144 302.252 70.64C302.06 72.848 301.196 74.96 299.852 76.88C298.508 78.8 296.78 80.528 294.668 81.872C292.556 83.312 289.964 84.368 287.084 85.136C284.492 85.904 279.692 86.288 277.004 86.288C272.588 86.288 264.044 84.752 257.996 80.528V82.832H256.556V67.856H257.996V69.104C257.996 76.784 265.484 84.176 277.388 84.176C282.86 84.176 288.044 83.024 291.404 80.624C294.764 78.416 296.492 75.632 296.684 72.176C296.78 70.64 296.588 69.2 296.204 68.048C295.724 66.896 294.86 65.84 293.42 64.88C292.076 63.92 290.156 62.96 287.66 62C285.26 61.136 281.996 60.176 278.06 59.12C273.548 57.872 269.612 56.528 266.444 55.088C263.276 53.744 260.78 52.112 258.956 50.384C257.036 48.656 255.788 46.736 255.02 44.72C254.348 42.704 254.06 40.496 254.252 38.192C254.444 35.888 255.212 33.776 256.46 31.76C257.708 29.84 259.436 28.112 261.452 26.672C263.564 25.232 265.964 24.08 268.748 23.312C271.532 22.544 274.508 22.16 277.58 22.16C285.548 22.16 290.636 24.176 296.78 28.304V25.712H298.124V40.592H296.78V39.44C296.78 31.664 288.428 24.368 277.676 24.368C264.812 24.368 261.452 31.568 260.684 33.104C259.916 34.736 259.724 36.272 260.012 37.904C260.108 38.864 260.492 39.824 261.068 40.784C261.644 41.648 262.604 42.608 263.948 43.568C265.388 44.528 267.308 45.584 269.9 46.544C272.396 47.6 275.756 48.656 279.98 49.616C284.3 50.768 287.948 52.016 290.828 53.36C293.804 54.704 296.108 56.336 297.932 58.064C299.66 59.792 300.908 61.712 301.58 63.728ZM329.424 23.408H323.856V84.656H329.328V86H309.936V84.656H315.312V23.408H310.032V22.064H329.424V23.408ZM391.112 46.736H389.768V45.584C389.768 37.52 382.472 23.888 369.512 23.888C366.056 23.888 362.888 24.56 359.912 26.096C357.032 27.536 354.44 29.552 352.328 32.24C350.12 34.832 348.392 38 347.24 41.552C345.992 45.104 345.416 49.04 345.416 53.264C345.416 57.68 345.992 61.808 347.24 65.552C348.392 69.296 350.12 72.56 352.232 75.344C354.344 78.128 356.936 80.336 359.816 81.872C362.696 83.408 365.864 84.176 369.32 84.176C378.536 84.176 384.968 77.936 387.848 73.232L391.112 77.168C389.192 78.896 384.968 81.968 382.856 83.024C380.648 84.176 378.44 85.04 376.136 85.616C373.832 86.192 371.528 86.48 369.32 86.48C364.712 86.48 360.392 85.616 356.456 83.984C352.52 82.352 349.064 79.952 346.184 76.976C343.304 74 341 70.448 339.368 66.416C337.736 62.48 336.968 57.968 336.968 53.264C336.968 48.752 337.736 44.528 339.368 40.688C341 36.848 343.304 33.488 346.28 30.704C349.16 27.824 352.616 25.616 356.552 23.984C360.488 22.448 364.808 21.68 369.512 21.68C377.288 21.68 385.448 26.576 389.768 30.416V27.728H391.112V46.736ZM456.418 23.408H450.85V84.656H456.322V86H436.93V84.656H442.306V23.408H437.026V22.064H456.418V23.408ZM511.955 63.728C512.627 65.84 512.819 68.144 512.627 70.64C512.435 72.848 511.571 74.96 510.227 76.88C508.883 78.8 507.155 80.528 505.043 81.872C502.931 83.312 500.339 84.368 497.459 85.136C494.867 85.904 490.067 86.288 487.379 86.288C482.963 86.288 474.419 84.752 468.371 80.528V82.832H466.931V67.856H468.371V69.104C468.371 76.784 475.859 84.176 487.763 84.176C493.235 84.176 498.419 83.024 501.779 80.624C505.139 78.416 506.867 75.632 507.059 72.176C507.155 70.64 506.963 69.2 506.579 68.048C506.099 66.896 505.235 65.84 503.795 64.88C502.451 63.92 500.531 62.96 498.035 62C495.635 61.136 492.371 60.176 488.435 59.12C483.923 57.872 479.987 56.528 476.819 55.088C473.651 53.744 471.155 52.112 469.331 50.384C467.411 48.656 466.163 46.736 465.395 44.72C464.723 42.704 464.435 40.496 464.627 38.192C464.819 35.888 465.587 33.776 466.835 31.76C468.083 29.84 469.811 28.112 471.827 26.672C473.939 25.232 476.339 24.08 479.123 23.312C481.907 22.544 484.883 22.16 487.955 22.16C495.923 22.16 501.011 24.176 507.155 28.304V25.712H508.499V40.592H507.155V39.44C507.155 31.664 498.803 24.368 488.051 24.368C475.187 24.368 471.827 31.568 471.059 33.104C470.291 34.736 470.099 36.272 470.387 37.904C470.483 38.864 470.867 39.824 471.443 40.784C472.019 41.648 472.979 42.608 474.323 43.568C475.763 44.528 477.683 45.584 480.275 46.544C482.771 47.6 486.131 48.656 490.355 49.616C494.675 50.768 498.323 52.016 501.203 53.36C504.179 54.704 506.483 56.336 508.307 58.064C510.035 59.792 511.283 61.712 511.955 63.728Z" fill="#EBBC64"/>
<path d="M38.488 132.032H44.536V132.704H42.76L33.208 164H30.04L22.648 141.968L15.064 164H11.896L2.968 132.704H0.712V132.032H9.544V132.704H7.48L14.728 161.6L23.176 134.864C23.272 134.48 23.8 134.48 23.944 134.864L32.872 161.6L40.456 132.704H38.488V132.032ZM75.9434 132.032V132.704H73.1594V163.328H75.8954V164H66.1994V163.328H68.9354V149.36C67.8314 148.304 65.7674 146.96 62.3114 146.96C58.4714 146.96 55.7834 149.072 54.4874 150.368V163.328H57.2234V164H47.4794V163.328H50.2154V132.704H47.5754V132.032H57.2714V132.704H54.4874V149.12C55.6874 147.728 58.3754 145.28 62.5514 145.28C65.7194 145.28 68.2154 146.48 68.9354 146.864V132.704H66.2474V132.032H75.9434ZM107.673 163.328H109.881V164H101.049V163.328H103.113L100.233 155.168C99.1765 154.112 97.1125 152.624 93.4645 152.624C89.2405 152.624 86.3125 155.312 85.2565 156.464L82.9045 163.328H84.8245V164H78.8245V163.328H80.5525L92.2645 132.704H90.5845V132.032H95.6725L107.673 163.328ZM93.7045 150.944C96.3445 150.944 98.2165 151.664 99.1285 152.144L92.8885 134.432L85.9285 154.496C87.2725 153.056 89.8645 150.944 93.7045 150.944ZM133.55 132.032L134.99 137.456H134.222C134.222 137.456 133.31 133.808 131.198 133.616C129.278 133.376 123.23 132.944 123.23 132.944V163.328H125.918V164H116.222V163.328H118.958V132.944C118.958 132.944 112.91 133.376 111.038 133.616C108.926 133.808 107.966 137.456 107.966 137.456H107.198L108.638 132.032H133.55Z" fill="#EBBC64"/>
<path d="M354.56 310.328H356.768V311H347.936V310.328H350L347.12 302.168C346.064 301.112 344 299.624 340.352 299.624C336.128 299.624 333.2 302.312 332.144 303.464L329.792 310.328H331.712V311H325.712V310.328H327.44L339.152 279.704H337.472V279.032H342.56L354.56 310.328ZM340.592 297.944C343.232 297.944 345.104 298.664 346.016 299.144L339.776 281.432L332.816 301.496C334.16 300.056 336.752 297.944 340.592 297.944ZM380.181 306.728V305.624H380.853V311L359.925 311.048V311H357.237V310.328H359.925V279.704H357.237V279.032H366.933V279.704H364.197V310.088L377.733 309.32C379.125 309.272 380.181 308.12 380.181 306.728ZM404.65 306.728V305.624H405.322V311L384.394 311.048V311H381.706V310.328H384.394V279.704H381.706V279.032H391.402V279.704H388.666V310.088L402.202 309.32C403.594 309.272 404.65 308.12 404.65 306.728ZM449.998 310.328H452.206V311H443.374V310.328H445.438L442.558 302.168C441.502 301.112 439.438 299.624 435.79 299.624C431.566 299.624 428.638 302.312 427.582 303.464L425.23 310.328H427.15V311H421.149V310.328H422.878L434.59 279.704H432.91V279.032H437.998L449.998 310.328ZM436.03 297.944C438.67 297.944 440.542 298.664 441.454 299.144L435.214 281.432L428.254 301.496C429.598 300.056 432.19 297.944 436.03 297.944ZM475.81 296.408C477.394 297.752 478.258 299.528 478.402 301.688V302.408C478.258 305.192 477.154 307.352 475.138 308.84C473.122 310.28 470.386 311 466.93 311H455.074H452.818V310.328H455.074V279.704H452.818V279.032H455.074H465.25C466.978 279.032 469.378 279.272 471.154 280.376C473.458 281.864 474.658 283.832 474.658 286.232V286.76C474.562 288.44 474.034 289.976 473.122 291.032C472.45 291.896 471.538 292.568 470.386 293.144L469.426 293.576L470.482 293.864C472.69 294.392 474.514 295.256 475.81 296.408ZM459.01 280.328V293.24H465.922C468.274 293.24 471.154 292.04 471.154 286.232C471.154 285.368 471.01 284.456 470.77 283.64C470.53 282.92 470.194 282.296 469.714 281.768C469.426 281.432 468.13 280.328 464.962 280.328H459.01ZM474.034 305.24C474.322 304.28 474.466 303.176 474.466 301.88C474.466 295.256 468.466 294.536 465.922 294.536H459.01V309.704H466.69C468.13 309.704 469.33 309.56 470.338 309.224C471.298 308.84 472.114 308.36 472.738 307.688C473.362 307.016 473.794 306.2 474.034 305.24ZM501.794 310.04C499.922 310.856 497.906 311.288 495.698 311.288C493.49 311.288 491.426 310.856 489.554 310.04C487.682 309.224 486.05 308.12 484.658 306.632C483.314 305.192 482.21 303.464 481.442 301.496C480.674 299.528 480.29 297.32 480.29 295.016C480.29 292.712 480.674 290.504 481.442 288.536C482.21 286.568 483.314 284.84 484.658 283.4C486.05 281.96 487.682 280.808 489.554 279.944C491.426 279.128 493.49 278.696 495.698 278.696C497.906 278.696 499.922 279.128 501.794 279.944C503.666 280.808 505.298 281.96 506.642 283.4C507.986 284.84 509.09 286.568 509.858 288.536C510.626 290.504 511.058 292.712 511.058 295.016C511.058 297.32 510.626 299.528 509.858 301.496C509.09 303.464 508.034 305.192 506.642 306.632C505.298 308.072 503.666 309.224 501.794 310.04ZM495.698 279.8H495.506C493.778 279.8 492.242 280.184 490.898 280.904C489.506 281.672 488.306 282.728 487.346 284.072C486.386 285.416 485.666 287.048 485.138 288.92C484.658 290.744 484.418 292.808 484.418 295.016C484.418 297.128 484.658 299.144 485.138 300.968C485.666 302.792 486.386 304.424 487.346 305.768C488.306 307.112 489.506 308.168 490.898 308.984C492.29 309.752 493.922 310.184 495.698 310.184H495.89C497.666 310.184 499.202 309.8 500.594 309.08C501.986 308.36 503.186 307.256 504.146 305.912C505.106 304.568 505.826 302.936 506.258 301.112C506.738 299.24 506.978 297.176 506.882 295.016C506.834 292.856 506.546 290.792 506.018 288.968C505.49 287.096 504.722 285.512 503.762 284.168C502.85 282.824 501.65 281.72 500.306 280.952C498.962 280.184 497.426 279.8 495.698 279.8ZM536.243 279.032H543.155V279.704H540.275V298.904C540.227 300.632 539.939 302.312 539.315 303.848C538.739 305.336 537.875 306.68 536.819 307.784C535.763 308.888 534.515 309.752 533.027 310.376C531.539 311 529.907 311.336 528.131 311.336C526.211 311.336 524.387 311.048 522.803 310.472C521.219 309.896 519.827 309.08 518.675 308.024C517.523 307.016 516.611 305.768 515.987 304.376C515.363 303.032 515.027 301.496 515.027 299.816V279.704H512.339V279.032H522.083V279.704H519.347V299.288C519.347 300.824 519.491 302.216 519.827 303.512C520.211 304.76 520.739 305.864 521.459 306.776C522.179 307.688 523.091 308.408 524.195 308.888C525.299 309.368 526.595 309.608 528.131 309.608C529.763 309.608 531.251 309.368 532.547 308.84C533.843 308.312 534.995 307.592 535.955 306.632C536.867 305.72 537.587 304.568 538.115 303.224C538.643 301.928 538.883 300.44 538.931 298.856V279.704H536.243V279.032ZM569.897 279.032L571.337 284.456H570.569C570.569 284.456 569.657 280.808 567.545 280.616C565.625 280.376 559.577 279.944 559.577 279.944V310.328H562.265V311H552.569V310.328H555.305V279.944C555.305 279.944 549.257 280.376 547.385 280.616C545.273 280.808 544.313 284.456 544.313 284.456H543.545L544.985 279.032H569.897Z" fill="#EBBC64"/>
<path d="M286.146 118.473C286.146 119.364 284.646 121.512 281.647 124.917C273.379 134.4 265.558 139.142 258.182 139.142C253.48 139.142 249.63 137.521 246.631 134.278C243.713 130.955 242.254 126.619 242.254 121.269C242.254 116.73 244.929 109.395 250.279 99.2627C252.792 94.5615 254.048 90.6709 254.048 87.5908C254.048 83.5381 251.778 80.0933 247.239 77.2563C242.781 74.3384 237.31 72.8794 230.826 72.8794C212.264 72.8794 195.04 80.0122 179.153 94.2778C163.348 108.543 155.445 123.984 155.445 140.601C155.445 149.03 158.079 155.92 163.348 161.27C168.697 166.619 175.587 169.294 184.017 169.294C193.176 169.294 202.375 165.971 211.616 159.324C220.937 152.597 227.502 144.532 231.312 135.129C231.555 134.319 231.879 133.914 232.285 133.914C233.014 133.914 233.379 134.319 233.379 135.129C233.379 136.832 231.96 139.871 229.124 144.248C226.287 148.544 223.369 152.151 220.37 155.069C209.427 165.849 197.147 171.239 183.53 171.239C174.29 171.239 166.874 168.402 161.281 162.729C155.688 157.055 152.892 149.517 152.892 140.114C152.892 123.012 161.119 107.166 177.573 92.5757C194.108 77.9858 212.021 70.6909 231.312 70.6909C239.823 70.6909 246.469 72.7983 251.251 77.0132C256.115 81.228 258.546 87.0234 258.546 94.3994C258.546 99.9111 256.601 106.436 252.71 113.974C249.225 120.864 247.482 125.524 247.482 127.956C247.482 133.954 251.049 136.953 258.182 136.953C266.287 136.953 274.676 130.955 283.349 118.959C284.079 117.986 284.687 117.5 285.173 117.5C285.821 117.5 286.146 117.824 286.146 118.473ZM416.36 96.3447C416.36 97.8037 415.509 98.5332 413.807 98.5332C413.077 98.5332 410.362 98.0469 405.661 97.0742C396.988 95.291 389.774 94.3994 384.019 94.3994C370.969 98.3711 359.419 106.071 349.368 117.5C339.398 128.929 328.01 147.45 315.204 173.063C295.588 212.375 270.461 235.597 239.823 242.729C246.226 243.702 251.778 244.188 256.479 244.188C271.394 244.188 283.917 239.406 294.048 229.842C303.856 220.602 312.002 210.794 318.486 200.419C319.216 199.284 319.783 198.717 320.188 198.717C320.675 198.717 320.958 198.879 321.04 199.203C321.04 200.419 316.379 206.701 307.058 218.048C298.385 228.667 290.482 236.002 283.349 240.055C276.216 244.026 267.503 246.012 257.209 246.012C251.292 246.012 244.078 245.161 235.567 243.459C230.38 245.161 224.422 246.012 217.695 246.012C212.994 246.012 210.643 245.161 210.643 243.459C210.643 241.514 213.804 240.541 220.126 240.541C224.584 240.541 229.731 240.946 235.567 241.757C248.131 238.758 257.614 233.813 264.018 226.924C270.502 220.034 282.944 201.392 301.343 170.996H254.534C234.676 191.908 219.316 206.782 208.455 215.617C183.084 236.205 159.173 246.499 136.721 246.499C123.915 246.499 113.013 243.5 104.016 237.501C95.0996 231.503 90.6416 224.208 90.6416 215.617C90.6416 211.159 91.979 207.349 94.6538 204.188C97.4097 201.027 100.733 199.446 104.624 199.446C109.892 199.446 112.526 202 112.526 207.106C112.526 209.781 111.594 212.091 109.73 214.036C107.947 215.9 105.839 216.833 103.408 216.833C99.5981 216.833 97.6934 215.009 97.6934 211.361L97.9365 208.93C98.0986 208.605 98.1797 208.16 98.1797 207.592C98.1797 206.782 97.8149 206.376 97.0854 206.376C96.2749 206.376 95.4644 207.39 94.6538 209.416C93.8433 211.442 93.438 213.509 93.438 215.617C93.438 223.56 97.6123 230.288 105.961 235.799C114.31 241.23 124.563 243.945 136.721 243.945C154.148 243.945 173.317 235.394 194.229 218.292C199.012 214.482 204.321 209.457 210.157 203.215C221.748 191.057 230.988 181.574 237.877 174.765L241.525 170.996H217.938L219.397 168.808C227.178 168.808 235.162 168.889 243.349 169.051C267.098 142.627 290.117 123.336 312.407 111.178C334.778 98.9385 358.406 92.7378 383.29 92.5757C389.044 91.4409 394.435 90.8735 399.46 90.8735C410.727 90.8735 416.36 92.6973 416.36 96.3447ZM377.818 94.8857C356.663 95.9395 337.048 102.019 318.973 113.123C300.897 124.228 280.066 142.87 256.479 169.051H302.559C312.934 150.976 325.457 134.765 340.128 120.418C354.556 106.152 367.119 97.6416 377.818 94.8857ZM388.08 195.434C388.08 208.646 379.853 220.683 363.399 231.544C350.025 240.379 339.569 244.796 332.031 244.796C326.843 244.796 324.249 242.365 324.249 237.501C324.249 236.042 324.655 234.057 325.465 231.544L278.899 309.235C276.062 308.586 273.752 308.262 271.969 308.262C269.294 308.262 266.66 308.749 264.066 309.721L363.885 145.585C366.074 146.315 368.221 146.68 370.329 146.68C372.517 146.68 375.192 146.315 378.353 145.585L342.243 203.945C350.916 192.435 357.198 184.897 361.089 181.331C365.06 177.764 368.992 175.981 372.882 175.981C377.178 175.981 380.785 177.845 383.703 181.574C386.621 185.302 388.08 189.922 388.08 195.434ZM379.083 185.708C379.083 180.439 376.732 177.805 372.031 177.805C366.114 177.805 356.185 187.329 342.243 206.376C331.463 221.128 326.073 231.26 326.073 236.772C326.073 240.906 327.978 242.973 331.787 242.973C339.244 242.973 348.971 235.718 360.967 221.209C373.044 206.62 379.083 194.786 379.083 185.708ZM469.102 203.945C469.102 204.999 463.388 211.807 451.959 224.371C439.477 237.988 428.858 244.796 420.105 244.796C414.431 244.796 409.567 242.648 405.515 238.353C401.462 233.976 399.436 228.788 399.436 222.79C399.436 215.981 402.191 208.93 407.703 201.635C413.215 194.34 420.631 188.058 429.953 182.79C437.815 178.25 444.218 175.981 449.163 175.981C455.161 175.981 458.16 179.547 458.16 186.68C458.16 192.273 456.255 197.866 452.445 203.458C448.717 209.051 444.988 211.848 441.26 211.848C437.612 211.848 435.789 210.024 435.789 206.376C435.789 202.081 439.517 198.109 446.974 194.461C452.729 191.625 455.607 187.896 455.607 183.276C455.607 179.628 453.621 177.805 449.649 177.805C442.921 177.805 434.654 184.492 424.846 197.866C415.039 211.24 410.135 222.466 410.135 231.544C410.135 239.163 413.701 242.973 420.834 242.973C432.02 242.973 447.177 230.369 466.306 205.161C467.359 203.864 468.129 203.215 468.616 203.215C468.94 203.296 469.102 203.54 469.102 203.945ZM522.647 156.649C522.647 159.892 517.581 166.335 507.449 175.981C506.963 178.494 506.72 180.682 506.72 182.546C506.72 187.248 508.868 194.705 513.163 204.917C515.352 210.024 516.446 214.32 516.446 217.805C516.446 225.1 512.88 231.422 505.747 236.772C498.695 242.122 490.306 244.796 480.579 244.796C475.068 244.796 470.65 243.256 467.327 240.176C464.085 237.015 462.464 232.8 462.464 227.532C462.464 221.453 464.612 215.536 468.908 209.781C473.285 204.026 477.783 201.148 482.403 201.148C483.214 201.148 483.943 201.311 484.592 201.635L494.318 189.72C497.236 186.234 501.127 181.412 505.99 175.251C507.368 169.578 509.475 164.714 512.312 160.662C515.149 156.609 517.946 154.583 520.702 154.583C521.998 154.583 522.647 155.271 522.647 156.649ZM505.747 204.674C505.747 202.243 505.666 199.852 505.504 197.501C505.342 195.069 505.261 191.625 505.261 187.167C505.261 183.519 505.423 180.479 505.747 178.048C501.208 183.803 494.642 191.908 486.051 202.364C487.591 203.661 488.361 205.242 488.361 207.106C488.361 211.888 484.43 215.13 476.567 216.833C473.406 217.562 470.65 219.305 468.3 222.061C466.03 224.735 464.895 227.572 464.895 230.571C464.895 233.813 466.071 236.529 468.421 238.717C470.772 240.906 473.69 242 477.175 242C483.984 242 490.428 238.069 496.507 230.207C502.667 222.263 505.747 213.752 505.747 204.674Z" fill="#EBBC64"/>
</svg>
