<svg width="401" height="173" viewBox="0 0 401 173" fill="none" xmlns="http://www.w3.org/2000/svg">
<g filter="url(#filter0_d_1328_3)">
<path d="M139.459 29.6543C139.459 31.8418 137.249 35.0091 132.828 39.1562C128.453 43.2578 123.098 47.1999 116.764 50.9824C115.943 53.5801 114.736 58.2969 113.141 65.1328C110.589 75.8424 108.242 83.4531 106.1 87.9648C103.958 92.431 100.426 96.9883 95.5039 101.637C81.2852 115.081 65.3574 121.803 47.7207 121.803C42.6621 121.803 38.196 120.96 34.3223 119.273C32.1803 123.466 31.1094 127.112 31.1094 130.211C31.1094 134.13 32.4082 137.73 35.0059 141.012C35.2793 141.285 35.416 141.604 35.416 141.969C35.416 142.333 35.1882 142.516 34.7324 142.516C33.6842 142.516 32.5449 141.103 31.3145 138.277C30.1296 135.452 29.5371 132.809 29.5371 130.348C29.5371 126.793 30.6992 122.874 33.0234 118.59C23.4987 113.668 18.7363 105.214 18.7363 93.2285C18.7363 85.5267 21.015 77.8704 25.5723 70.2598C30.1296 62.6491 36.5326 55.7904 44.7812 49.6836C55.3086 41.9362 65.722 38.0625 76.0215 38.0625C81.627 38.0625 86.0703 39.6348 89.3516 42.7793C92.6784 45.9238 94.3418 50.1849 94.3418 55.5625C94.3418 58.4336 93.9316 61.4186 93.1113 64.5176C99.8105 60.0514 105.735 56.2689 110.885 53.1699C114.166 46.015 118.29 39.8626 123.258 34.7129C128.225 29.5632 132.555 26.9883 136.246 26.9883C138.388 26.9883 139.459 27.877 139.459 29.6543ZM138.16 29.791C138.16 28.6973 137.522 28.1504 136.246 28.1504C133.193 28.1504 129.775 30.2695 125.992 34.5078C122.255 38.7005 119.361 43.6224 117.311 49.2734C123.326 45.582 128.294 41.8906 132.213 38.1992C136.178 34.5078 138.16 31.7051 138.16 29.791ZM90.7188 67.5938L86.207 70.6699C69.026 82.5189 56.6302 92.3854 49.0195 100.27C50.9336 101.272 52.9844 101.773 55.1719 101.773C61.5521 101.773 68.2285 98.4238 75.2012 91.7246C82.1738 85.0254 87.3464 76.9818 90.7188 67.5938ZM110.064 55.0156C104.732 58.388 98.8991 62.2161 92.5645 66.5C89.5566 76.1615 84.2702 84.638 76.7051 91.9297C69.1855 99.2214 61.9622 102.867 55.0352 102.867C52.9388 102.867 50.6374 102.32 48.1309 101.227C42.9811 106.559 38.6061 112.164 35.0059 118.043C38.7428 119.729 42.9811 120.572 47.7207 120.572C56.2884 120.572 64.5827 118.157 72.6035 113.326C80.6243 108.45 87.5059 101.705 93.248 93.0918C95.9368 89.0814 98.056 85.3672 99.6055 81.9492C101.155 78.4857 103.661 71.9915 107.125 62.4668C107.945 60.097 108.925 57.6133 110.064 55.0156ZM93.1113 55.2891C93.1113 50.5039 91.5846 46.653 88.5312 43.7363C85.5234 40.8197 81.5358 39.3613 76.5684 39.3613C64.3092 39.3613 52.4375 45.7415 40.9531 58.502C29.5143 71.2624 23.7949 84.4785 23.7949 98.1504C23.7949 107.128 27.099 113.508 33.707 117.291C36.806 112.187 41.2493 106.604 47.0371 100.543C44.0293 97.9453 42.5254 94.8464 42.5254 91.2461C42.5254 88.5117 43.3913 86.1875 45.123 84.2734C46.8548 82.3138 48.9512 81.334 51.4121 81.334C54.4655 81.334 55.9922 82.7467 55.9922 85.5723C55.9922 87.0306 55.4225 88.3066 54.2832 89.4004C53.1439 90.4486 51.7995 90.9727 50.25 90.9727C48.0169 90.9727 46.9004 89.9017 46.9004 87.7598C46.9004 87.0762 47.1283 86.347 47.584 85.5723C47.7663 84.9798 47.8574 84.638 47.8574 84.5469C47.8574 84.2734 47.7207 84.1367 47.4473 84.1367C46.6725 84.1367 45.875 84.957 45.0547 86.5977C44.2344 88.2383 43.8242 89.8561 43.8242 91.4512C43.8242 94.459 45.2142 97.1478 47.9941 99.5176C57.1543 89.8561 71.6237 78.5768 91.4023 65.6797C92.5417 61.6693 93.1113 58.2057 93.1113 55.2891ZM160.035 97.6035C160.035 98.5605 156.708 102.981 150.055 110.865C144.677 117.337 140.439 120.572 137.34 120.572C135.243 120.572 133.535 119.798 132.213 118.248C130.891 116.653 130.23 114.671 130.23 112.301C130.23 109.84 130.96 107.174 132.418 104.303C127.861 110.683 124.374 114.99 121.959 117.223C119.544 119.456 117.197 120.572 114.918 120.572C112.503 120.572 110.475 119.547 108.834 117.496C107.193 115.4 106.373 112.779 106.373 109.635C106.373 100.885 112.548 93.1374 124.898 86.3926C130.322 83.3848 134.697 81.8809 138.023 81.8809C140.849 81.8809 142.262 83.248 142.262 85.9824C142.262 86.7572 142.079 87.7826 141.715 89.0586L145.201 82.4277C146.568 82.7467 147.776 82.9062 148.824 82.9062C150.055 82.9062 151.65 82.7467 153.609 82.4277L141.51 102.457C137.317 109.475 135.221 114.101 135.221 116.334C135.221 118.476 136.109 119.547 137.887 119.547C139.71 119.547 142.626 117.473 146.637 113.326C150.647 109.133 154.726 103.984 158.873 97.877C159.146 97.4212 159.397 97.1934 159.625 97.1934C159.898 97.1934 160.035 97.3301 160.035 97.6035ZM141.236 86.2559C141.236 84.0228 140.211 82.9062 138.16 82.9062C133.967 82.9062 128.453 87.0078 121.617 95.2109C114.827 103.414 111.432 110.045 111.432 115.104C111.432 118.066 112.753 119.547 115.396 119.547C118.541 119.547 123.987 114.329 131.734 103.893C138.069 95.3249 141.236 89.446 141.236 86.2559ZM192.779 92.8184C192.779 100.247 188.154 107.014 178.902 113.121C171.383 118.089 165.504 120.572 161.266 120.572C158.349 120.572 156.891 119.205 156.891 116.471C156.891 115.65 157.118 114.534 157.574 113.121L131.393 156.803C129.798 156.438 128.499 156.256 127.496 156.256C125.992 156.256 124.511 156.529 123.053 157.076L179.176 64.791C180.406 65.2012 181.614 65.4062 182.799 65.4062C184.029 65.4062 185.533 65.2012 187.311 64.791L167.008 97.6035C171.884 91.1322 175.416 86.8939 177.604 84.8887C179.837 82.8835 182.047 81.8809 184.234 81.8809C186.65 81.8809 188.678 82.929 190.318 85.0254C191.959 87.1217 192.779 89.7194 192.779 92.8184ZM187.721 87.3496C187.721 84.3874 186.399 82.9062 183.756 82.9062C180.429 82.9062 174.846 88.2611 167.008 98.9707C160.947 107.265 157.916 112.962 157.916 116.061C157.916 118.385 158.987 119.547 161.129 119.547C165.322 119.547 170.79 115.468 177.535 107.311C184.326 99.1074 187.721 92.4538 187.721 87.3496ZM229.967 92.8184C229.967 100.247 225.341 107.014 216.09 113.121C208.57 118.089 202.691 120.572 198.453 120.572C195.536 120.572 194.078 119.205 194.078 116.471C194.078 115.65 194.306 114.534 194.762 113.121L168.58 156.803C166.985 156.438 165.686 156.256 164.684 156.256C163.18 156.256 161.699 156.529 160.24 157.076L216.363 64.791C217.594 65.2012 218.801 65.4062 219.986 65.4062C221.217 65.4062 222.721 65.2012 224.498 64.791L204.195 97.6035C209.072 91.1322 212.604 86.8939 214.791 84.8887C217.024 82.8835 219.234 81.8809 221.422 81.8809C223.837 81.8809 225.865 82.929 227.506 85.0254C229.146 87.1217 229.967 89.7194 229.967 92.8184ZM224.908 87.3496C224.908 84.3874 223.587 82.9062 220.943 82.9062C217.617 82.9062 212.034 88.2611 204.195 98.9707C198.134 107.265 195.104 112.962 195.104 116.061C195.104 118.385 196.174 119.547 198.316 119.547C202.509 119.547 207.978 115.468 214.723 107.311C221.513 99.1074 224.908 92.4538 224.908 87.3496ZM278.297 97.4668C278.297 97.8314 278.069 98.2415 277.613 98.6973L274.674 102.73C266.106 114.625 259.726 120.572 255.533 120.572C253.346 120.572 251.546 119.798 250.133 118.248C248.766 116.653 248.082 114.671 248.082 112.301C248.082 109.111 249.814 104.941 253.277 99.791C258.701 91.8158 261.412 87.0762 261.412 85.5723C261.412 83.7949 260.478 82.9062 258.609 82.9062C255.875 82.9062 252.138 85.5951 247.398 90.9727C242.841 96.1224 236.575 105.875 228.6 120.23C227.232 119.957 226.07 119.82 225.113 119.82C224.111 119.82 222.766 119.957 221.08 120.23L231.129 102.047C232.496 99.4492 234.592 95.6211 237.418 90.5625C238.922 88.1016 243.548 80.263 251.295 67.0469L261.686 49.4102C263.053 49.6836 264.215 49.8203 265.172 49.8203C266.995 49.8203 268.727 49.5924 270.367 49.1367C265.628 56.7474 258.564 68.1406 249.176 83.3164C248.902 83.7721 245.37 89.651 238.58 100.953C247.148 88.2383 253.915 81.8809 258.883 81.8809C260.842 81.8809 262.506 82.724 263.873 84.4102C265.286 86.0964 265.992 88.1471 265.992 90.5625C265.992 93.707 263.987 98.2415 259.977 104.166C255.51 110.774 253.277 114.921 253.277 116.607C253.277 118.567 254.257 119.547 256.217 119.547C259.771 119.547 265.65 113.805 273.854 102.32L275.973 99.3809L277.203 97.877C277.431 97.4212 277.704 97.1934 278.023 97.1934C278.206 97.1934 278.297 97.2845 278.297 97.4668ZM300.924 69.3027C300.924 70.8978 300.24 72.4017 298.873 73.8145C297.551 75.1816 296.093 75.8652 294.498 75.8652C292.447 75.8652 291.422 74.8398 291.422 72.7891C291.422 71.2852 292.128 69.8496 293.541 68.4824C294.954 67.0697 296.435 66.3633 297.984 66.3633C299.944 66.3633 300.924 67.3431 300.924 69.3027ZM301.881 97.6035C301.835 97.7402 301.607 98.1048 301.197 98.6973L298.258 102.73C289.69 114.625 283.15 120.572 278.639 120.572C276.497 120.572 274.697 119.82 273.238 118.316C271.826 116.767 271.119 114.853 271.119 112.574C271.119 109.931 272.691 105.921 275.836 100.543L286.5 82.4277C287.913 82.7467 289.029 82.9062 289.85 82.9062C291.08 82.9062 292.812 82.7467 295.045 82.4277L279.527 107.926C277.294 111.617 276.178 114.465 276.178 116.471C276.178 118.521 277.249 119.547 279.391 119.547C283.447 119.547 290.579 112.324 300.787 97.877C301.015 97.4212 301.243 97.1934 301.471 97.1934C301.744 97.1934 301.881 97.3301 301.881 97.6035ZM340.982 97.6035C340.982 97.9681 339.615 99.6315 336.881 102.594C333.417 106.422 330.159 108.336 327.105 108.336C323.642 108.336 321.91 106.331 321.91 102.32C321.91 101.044 322.184 99.4264 322.73 97.4668C319.859 99.9733 317.512 102.457 315.689 104.918C313.912 107.379 310.813 112.392 306.393 119.957C303.977 119.775 302.564 119.684 302.154 119.684C301.972 119.684 300.582 119.775 297.984 119.957L309.195 101.773C314.801 92.6589 317.604 87.0078 317.604 84.8203C317.604 83.5443 317.079 82.9062 316.031 82.9062C313.479 82.9062 308.854 87.8053 302.154 97.6035C301.744 98.2415 301.38 98.5605 301.061 98.5605C300.878 98.515 300.787 98.3783 300.787 98.1504C300.833 97.9225 300.924 97.7402 301.061 97.6035L302.291 95.8945C309.309 86.5521 314.072 81.8809 316.578 81.8809C320.224 81.8809 322.047 84.2279 322.047 88.9219C322.047 92.431 320.178 97.0794 316.441 102.867C318.811 100.133 321.067 97.8997 323.209 96.168C324.941 92.112 327.083 88.7168 329.635 85.9824C332.232 83.248 334.557 81.8809 336.607 81.8809C338.02 81.8809 338.727 82.4961 338.727 83.7266C338.727 85.9141 335.559 89.0358 329.225 93.0918C328.222 93.7298 326.718 94.6641 324.713 95.8945L323.893 96.5781C323.255 98.6745 322.936 100.406 322.936 101.773C322.936 105.602 324.371 107.516 327.242 107.516C330.797 107.516 334.671 104.576 338.863 98.6973C339.775 97.6947 340.344 97.1934 340.572 97.1934C340.846 97.1934 340.982 97.3301 340.982 97.6035ZM375.436 97.6035C375.436 97.7402 375.025 98.3327 374.205 99.3809L371.266 103.072C361.832 114.739 353.743 120.572 346.998 120.572C343.808 120.572 341.119 119.433 338.932 117.154C336.79 114.83 335.719 111.936 335.719 108.473C335.719 100.27 341.438 93.0462 352.877 86.8027C358.893 83.5215 363.792 81.8809 367.574 81.8809C369.215 81.8809 370.605 82.3822 371.744 83.3848C372.929 84.3418 373.521 85.5267 373.521 86.9395C373.521 90.2207 371.38 93.0234 367.096 95.3477C362.812 97.6263 355.657 99.7682 345.631 101.773C342.532 106.467 340.982 110.387 340.982 113.531C340.982 117.451 343.102 119.41 347.34 119.41C354.54 119.41 363.359 112.369 373.795 98.2871C374.342 97.5579 374.798 97.1934 375.162 97.1934C375.344 97.2389 375.436 97.3757 375.436 97.6035ZM369.693 84.957C369.693 83.4987 368.896 82.7695 367.301 82.7695C364.885 82.7695 361.695 84.4557 357.73 87.8281C353.811 91.1549 349.96 95.4844 346.178 100.816C352.74 99.1302 358.3 96.7604 362.857 93.707C367.415 90.6081 369.693 87.6914 369.693 84.957Z" fill="white"/>
</g>
<g filter="url(#filter1_d_1328_3)">
<path d="M204.473 138.192L198.677 148.416H205.985L204.473 138.192ZM213.581 159H204.581L204.653 158.64C206.705 158.532 207.281 157.704 206.957 155.328L206.057 149.136H198.245L194.825 155.184C193.421 157.632 193.601 158.532 195.617 158.64L195.545 159H189.245L189.317 158.64C191.657 158.568 192.737 157.776 194.393 154.896L206.417 133.8H207.101L210.125 154.896C210.521 157.74 211.313 158.568 213.653 158.64L213.581 159ZM227.66 159.36C219.776 159.36 215.276 153.816 216.824 146.4C218.408 138.984 225.284 133.368 232.772 133.368C235.616 133.368 238.172 134.124 239.72 135.42L239.36 139.128H239C239.108 135.78 237.02 133.908 233.24 133.908C227.084 133.908 221.9 138.768 220.424 145.788C219.056 152.268 221.36 158.82 228.704 158.82C232.268 158.82 234.5 157.236 235.94 153.6H236.3L235.076 157.308C232.844 158.712 230.432 159.36 227.66 159.36ZM238.276 159L238.348 158.64C241.192 158.532 241.588 156.984 242.272 153.78L245.404 139.02C246.088 135.816 246.34 134.268 243.568 134.16L243.64 133.8H252.496L252.424 134.16C249.58 134.268 249.184 135.816 248.5 139.02L247.132 145.428H258.652L260.02 139.02C260.704 135.816 260.956 134.268 258.184 134.16L258.256 133.8H267.076L267.004 134.16C264.16 134.268 263.764 135.816 263.08 139.02L259.948 153.78C259.264 156.984 259.012 158.532 261.784 158.64L261.712 159H252.892L252.964 158.64C255.808 158.532 256.204 156.984 256.888 153.78L258.544 145.968H247.024L245.368 153.78C244.684 156.984 244.432 158.532 247.204 158.64L247.132 159H238.276ZM264.474 159L264.546 158.64C267.39 158.532 267.786 156.984 268.47 153.78L271.602 139.02C272.286 135.816 272.538 134.268 269.766 134.16L269.838 133.8H278.694L278.622 134.16C275.778 134.268 275.382 135.816 274.698 139.02L271.566 153.78C270.882 156.984 270.63 158.532 273.402 158.64L273.33 159H264.474ZM281.658 133.8H298.326L298.218 137.4H297.858C297.822 134.988 296.922 134.34 293.178 134.34C288.714 134.34 287.274 135.384 286.482 139.128L285.15 145.5H286.554C289.542 145.5 292.746 145.608 293.574 141.684H293.934L292.89 149.64H292.53C292.818 146.076 289.686 146.04 286.41 146.04H285.042L283.386 153.672C282.594 157.416 283.53 158.46 288.21 158.46C293.07 158.46 294.546 157.452 295.482 155.4H295.842L294.402 159H276.294L276.366 158.64C279.21 158.532 279.606 156.984 280.29 153.78L283.422 139.02C284.106 135.816 284.358 134.268 281.586 134.16L281.658 133.8ZM308.108 159L304.904 137.544C304.544 135.168 303.608 134.232 301.412 134.16L301.484 133.8H310.808L310.736 134.16C307.748 134.232 308.072 136.176 308.288 138.084L310.772 154.5L320.42 137.292C321.428 135.42 321.716 134.268 319.268 134.16L319.34 133.8H325.676L325.604 134.16C323.372 134.232 322.22 135.096 320.816 137.616L308.828 159H308.108ZM328.043 133.8H344.711L344.603 137.4H344.243C344.207 134.988 343.307 134.34 339.563 134.34C335.099 134.34 333.659 135.384 332.867 139.128L331.535 145.5H332.939C335.927 145.5 339.131 145.608 339.959 141.684H340.319L339.275 149.64H338.915C339.203 146.076 336.071 146.04 332.795 146.04H331.427L329.771 153.672C328.979 157.416 329.915 158.46 334.595 158.46C339.455 158.46 340.931 157.452 341.867 155.4H342.227L340.787 159H322.679L322.751 158.64C325.595 158.532 325.991 156.984 326.675 153.78L329.807 139.02C330.491 135.816 330.743 134.268 327.971 134.16L328.043 133.8ZM354.143 139.128L352.559 146.652H353.531C359.327 146.652 361.811 144.924 362.783 140.424C363.647 136.284 362.279 134.34 358.463 134.34C355.799 134.34 354.971 135.24 354.143 139.128ZM352.811 159H343.955L344.027 158.64C346.511 158.604 347.087 157.74 347.951 153.78L351.083 139.02C351.911 135.06 351.695 134.196 349.247 134.16L349.319 133.8H359.399C364.619 133.8 367.103 136.176 366.239 140.28C365.555 143.448 363.071 145.824 359.183 146.94C363.287 148.2 364.259 150.288 363.575 154.824C363.071 157.812 363.431 158.64 364.979 158.64H365.231L365.159 159H362.567C360.479 159 359.759 157.776 360.155 155.004C360.947 148.884 359.543 147.192 353.423 147.192H352.451L351.047 153.78C350.183 157.74 350.399 158.604 352.883 158.64L352.811 159ZM375.984 159C379.26 159 382.176 157.056 382.716 154.536C383.148 152.628 382.032 151.044 378.36 147.84C373.68 143.772 372.42 141.576 372.96 138.948C373.68 135.672 376.884 133.44 380.88 133.44C383.868 133.44 386.604 134.628 388.116 136.536L386.568 140.316H386.208C387.324 136.824 385.092 133.8 381.384 133.8C378.684 133.8 376.776 135.168 376.272 137.544C375.804 139.632 376.812 141.18 381.384 145.212C385.272 148.56 386.46 150.648 385.956 153.132C385.164 156.732 381.096 159.36 376.128 159.36C372.564 159.36 369.972 158.064 368.172 155.292L370.008 150.648H370.368C368.784 155.04 371.448 159 375.984 159Z" fill="white"/>
</g>
<defs>
<filter id="filter0_d_1328_3" x="12.8363" y="22.0883" width="374.499" height="147.888" filterUnits="userSpaceOnUse" color-interpolation-filters="sRGB">
<feFlood flood-opacity="0" result="BackgroundImageFix"/>
<feColorMatrix in="SourceAlpha" type="matrix" values="0 0 0 0 0 0 0 0 0 0 0 0 0 0 0 0 0 0 127 0" result="hardAlpha"/>
<feOffset dx="3" dy="4"/>
<feGaussianBlur stdDeviation="4.45"/>
<feComposite in2="hardAlpha" operator="out"/>
<feColorMatrix type="matrix" values="0 0 0 0 0 0 0 0 0 0.7 0 0 0 0 1 0 0 0 1 0"/>
<feBlend mode="normal" in2="BackgroundImageFix" result="effect1_dropShadow_1328_3"/>
<feBlend mode="normal" in="SourceGraphic" in2="effect1_dropShadow_1328_3" result="shape"/>
</filter>
<filter id="filter1_d_1328_3" x="183.345" y="128.468" width="216.671" height="43.792" filterUnits="userSpaceOnUse" color-interpolation-filters="sRGB">
<feFlood flood-opacity="0" result="BackgroundImageFix"/>
<feColorMatrix in="SourceAlpha" type="matrix" values="0 0 0 0 0 0 0 0 0 0 0 0 0 0 0 0 0 0 127 0" result="hardAlpha"/>
<feOffset dx="3" dy="4"/>
<feGaussianBlur stdDeviation="4.45"/>
<feComposite in2="hardAlpha" operator="out"/>
<feColorMatrix type="matrix" values="0 0 0 0 0 0 0 0 0 0.7 0 0 0 0 1 0 0 0 1 0"/>
<feBlend mode="normal" in2="BackgroundImageFix" result="effect1_dropShadow_1328_3"/>
<feBlend mode="normal" in="SourceGraphic" in2="effect1_dropShadow_1328_3" result="shape"/>
</filter>
</defs>
</svg>
